<?xml version="1.0" standalone="no"?>
<!DOCTYPE svg PUBLIC "-//W3C//DTD SVG 20010904//EN"
 "http://www.w3.org/TR/2001/REC-SVG-20010904/DTD/svg10.dtd">
<svg version="1.0" xmlns="http://www.w3.org/2000/svg"
 width="3375.000000pt" height="2250.000000pt" viewBox="0 0 3375.000000 2250.000000"
 preserveAspectRatio="xMidYMid meet">
<metadata>
Created by potrace 1.16, written by Peter Selinger 2001-2019
</metadata>
<g transform="translate(0.000000,2250.000000) scale(0.100000,-0.100000)"
fill="#000000" stroke="none">
<path d="M0 11250 l0 -11250 9293 0 9292 0 2 118 c1 88 8 141 27 212 13 52 25
89 25 82 1 -10 4 -10 15 0 8 7 12 16 10 19 -2 3 8 17 23 30 18 17 27 20 30 11
4 -9 8 -10 18 -2 10 8 19 7 34 -6 11 -10 18 -21 15 -26 -6 -9 3 -12 49 -22 19
-5 27 -12 25 -23 -2 -11 6 -19 22 -23 16 -4 25 -13 25 -25 0 -11 7 -20 15 -20
8 0 19 -10 25 -22 5 -12 17 -24 27 -26 10 -3 18 -14 18 -25 0 -12 8 -27 18
-34 10 -8 18 -30 20 -58 2 -25 8 -49 13 -55 5 -5 9 -31 9 -57 l0 -48 7350 0
7350 0 0 11250 0 11250 -3857 -2 -3858 -3 -5 -35 c-3 -22 -11 -36 -22 -38 -13
-2 -15 2 -10 20 5 20 4 21 -11 9 -9 -7 -27 -11 -40 -7 -12 3 -35 -1 -51 -9
-16 -8 -34 -15 -41 -15 -17 0 -25 -22 -35 -95 -7 -43 -15 -64 -31 -76 -13 -9
-19 -21 -15 -28 5 -7 -1 -19 -11 -29 -24 -21 -40 -131 -57 -395 -3 -48 -1 -97
3 -110 5 -12 36 -50 69 -84 70 -71 85 -110 80 -210 -2 -49 -8 -73 -25 -96 -13
-17 -23 -36 -23 -42 0 -16 -29 -73 -40 -80 -5 -3 -16 -30 -25 -60 -8 -30 -20
-55 -24 -55 -5 0 -13 -15 -17 -32 -3 -18 -17 -49 -30 -68 -13 -19 -24 -43 -24
-54 0 -11 -14 -43 -30 -73 -17 -29 -30 -62 -30 -73 0 -11 -4 -20 -8 -20 -5 0
-17 -18 -28 -40 -10 -22 -22 -40 -26 -40 -5 0 -8 -12 -8 -28 0 -16 -8 -32 -20
-39 -10 -7 -22 -29 -26 -50 -4 -21 -10 -42 -14 -48 -4 -5 -11 -25 -15 -42 -3
-18 -10 -33 -14 -33 -4 0 -20 -36 -35 -80 -16 -44 -32 -78 -36 -75 -5 3 -6 -4
-3 -15 3 -12 -1 -28 -9 -38 -22 -25 -31 -67 -31 -150 0 -61 3 -76 21 -95 12
-13 20 -26 17 -29 -3 -2 4 -13 15 -23 11 -10 20 -24 20 -32 0 -8 11 -26 25
-41 14 -15 25 -37 25 -49 0 -21 66 -83 89 -83 6 0 11 -4 11 -8 0 -8 43 -32 55
-32 3 0 5 6 5 13 0 6 15 18 33 25 17 8 41 17 52 22 11 4 28 11 39 14 12 4 17
13 13 25 -3 12 1 22 9 25 8 3 14 14 14 25 0 10 6 21 13 24 8 3 11 20 9 49 l-4
45 -46 -2 c-26 -1 -35 0 -19 2 24 4 27 8 27 44 0 22 -5 39 -11 39 -8 0 -8 5 1
15 17 20 30 19 31 -2 1 -10 5 1 11 25 10 46 28 48 28 2 0 -46 18 -44 28 2 6
24 10 35 11 25 2 -31 76 -56 166 -58 54 -1 70 -4 50 -8 l-30 -7 32 -17 c18 -9
48 -17 68 -17 28 0 35 -4 35 -20 0 -17 7 -20 50 -20 l50 0 0 -40 c0 -22 -4
-40 -10 -40 -5 0 -10 -18 -10 -40 0 -40 0 -40 39 -40 22 0 41 -4 43 -9 2 -5
20 -12 41 -16 30 -6 37 -4 37 9 0 9 4 16 9 16 5 0 8 -8 7 -17 0 -10 6 -19 15
-21 12 -2 18 7 23 33 8 43 -1 85 -15 64 -6 -11 -9 -10 -15 4 -3 9 -12 17 -19
17 -6 0 -20 18 -30 40 -19 43 -25 46 -43 28 -9 -9 -12 -1 -12 36 0 40 -27 114
-50 136 -21 20 -33 73 -31 134 2 57 7 73 24 87 24 20 57 25 57 9 0 -5 8 -10
18 -10 11 0 27 -9 37 -20 10 -11 24 -20 32 -20 7 0 13 -7 13 -15 0 -9 7 -18
15 -21 9 -4 27 -32 41 -63 14 -31 32 -60 40 -64 8 -5 12 -12 9 -17 -3 -5 3
-15 13 -22 10 -7 24 -29 32 -48 7 -19 22 -46 32 -59 10 -13 15 -28 12 -33 -3
-5 1 -17 10 -27 9 -10 15 -29 14 -42 -2 -28 36 -91 81 -133 54 -51 65 -127 19
-142 -11 -3 -55 -2 -97 2 -42 5 -83 7 -91 6 -8 -1 -24 -4 -35 -6 -11 -1 -34
-10 -52 -19 -18 -10 -41 -17 -53 -17 -12 0 -40 -9 -62 -20 -23 -11 -51 -20
-63 -20 -12 0 -25 -3 -29 -7 -3 -4 -14 -8 -24 -9 -69 -10 -152 -29 -152 -36 0
-4 -10 -8 -23 -8 -13 0 -27 -4 -33 -9 -11 -11 -126 -29 -235 -37 -74 -5 -147
-34 -156 -60 -6 -17 92 -83 144 -99 24 -7 59 -25 78 -39 19 -15 54 -35 78 -45
25 -11 65 -40 91 -65 25 -25 50 -46 56 -46 5 0 10 -4 10 -10 0 -12 56 -70 68
-70 5 0 12 -16 15 -35 3 -19 15 -44 26 -57 24 -25 25 -28 8 -49 -21 -27 -78
-41 -181 -44 -65 -3 -113 -10 -142 -22 -40 -16 -58 -33 -35 -33 6 0 9 -12 8
-27 -2 -23 2 -28 20 -26 11 1 24 -4 27 -12 3 -8 1 -15 -4 -15 -15 0 -12 -17 5
-34 9 -9 15 -34 15 -65 0 -46 4 -54 38 -85 20 -20 51 -38 67 -42 44 -9 93 -42
150 -98 70 -70 88 -108 89 -186 1 -60 -2 -70 -39 -122 -22 -32 -45 -58 -51
-58 -7 0 -15 -9 -19 -19 -3 -10 -19 -24 -36 -31 -16 -7 -33 -18 -37 -24 -14
-22 -117 -66 -155 -66 -44 0 -81 16 -71 32 4 6 -1 8 -13 4 -14 -5 -23 1 -33
20 -8 14 -22 30 -32 35 -10 6 -16 14 -13 20 4 5 2 9 -3 9 -13 0 -39 65 -52
130 -9 41 -9 72 0 125 22 135 23 175 4 216 -9 22 -20 39 -24 39 -4 0 -12 25
-19 55 -7 30 -17 55 -22 55 -5 0 -9 -4 -9 -10 0 -5 -4 -10 -10 -10 -5 0 -10 7
-10 15 0 8 -4 15 -10 15 -5 0 -10 8 -10 19 0 10 -7 24 -15 31 -8 7 -15 20 -15
30 0 21 -35 54 -49 46 -6 -4 -16 2 -23 14 -11 17 -23 20 -75 20 -35 0 -63 4
-63 10 0 6 -18 10 -40 10 -36 0 -40 -2 -40 -25 0 -27 -9 -32 -27 -14 -7 7 -17
1 -33 -21 -18 -26 -20 -34 -9 -40 7 -5 10 -13 5 -17 -5 -4 -11 -2 -13 5 -7 19
-23 14 -23 -7 0 -24 -41 -135 -52 -139 -4 -2 -8 -57 -8 -123 0 -73 -4 -119
-10 -119 -5 0 -10 -18 -10 -40 0 -22 5 -40 10 -40 6 0 10 -5 10 -12 0 -21 48
-113 69 -132 12 -11 24 -37 27 -58 4 -21 12 -38 19 -38 7 0 15 -8 19 -17 6
-21 28 -56 38 -63 16 -12 11 -254 -6 -321 -8 -31 -12 -73 -9 -98 6 -45 -13
-121 -30 -121 -6 0 -18 -6 -26 -13 -19 -17 -171 -64 -226 -72 -116 -15 -438
-28 -432 -17 3 4 -50 7 -116 6 -67 -1 -129 2 -137 7 -8 4 -78 12 -155 18 -77
6 -189 17 -250 23 -60 6 -128 11 -150 11 -69 0 -130 -6 -140 -12 -5 -3 -12 -6
-15 -6 -3 -1 -22 -7 -43 -14 -21 -7 -41 -11 -44 -8 -2 3 -21 0 -41 -7 -62 -22
-201 -20 -279 3 -37 12 -77 25 -88 30 -55 26 -146 51 -183 51 -23 0 -42 5 -42
10 0 6 24 10 54 10 29 0 78 5 107 11 30 6 61 12 69 14 8 1 22 5 30 8 8 3 58
13 110 22 53 8 112 20 130 25 19 6 64 10 100 9 72 -2 218 -27 237 -41 11 -8
313 -2 321 7 2 2 15 -1 29 -6 18 -6 30 -6 39 2 11 9 18 8 31 -2 13 -11 17 -11
20 -1 3 8 26 12 65 12 78 0 195 34 231 68 21 20 27 35 27 67 0 22 -5 46 -11
52 -16 16 -16 143 0 152 7 5 18 30 25 57 8 30 18 48 26 46 7 -2 10 3 7 12 -3
8 1 17 9 20 8 3 14 14 14 24 0 23 44 45 74 37 15 -5 17 -4 8 3 -12 8 -12 13 0
33 7 13 20 31 28 39 9 8 23 27 33 43 10 15 24 27 32 27 8 0 15 5 15 10 0 6 -5
10 -10 10 -18 0 150 160 168 160 16 1 16 1 0 11 -22 12 -23 29 -3 29 20 0 19
19 -1 27 -13 5 -13 7 -2 14 16 10 19 222 5 309 -10 61 -45 158 -65 178 -7 8
-38 16 -68 19 -51 4 -61 1 -114 -31 -34 -21 -65 -34 -74 -30 -11 4 -16 1 -16
-10 0 -12 -10 -16 -40 -16 -33 0 -40 3 -40 20 0 17 -7 20 -40 20 -22 0 -40 5
-40 10 0 6 -9 10 -20 10 -11 0 -20 6 -20 13 0 30 -26 64 -63 82 -37 18 -40 18
-69 2 -16 -9 -36 -17 -44 -17 -15 0 -27 -8 -65 -42 -10 -10 -23 -18 -29 -18
-5 0 -10 -4 -10 -9 0 -12 -135 -103 -180 -121 -19 -8 -41 -13 -47 -12 -7 2
-13 -5 -13 -15 0 -18 -9 -24 -80 -58 -19 -8 -42 -23 -51 -31 -9 -8 -20 -14
-25 -13 -21 4 -34 -2 -34 -16 0 -17 -36 -38 -51 -29 -6 3 -24 -3 -40 -15 -15
-11 -37 -21 -49 -21 -11 0 -20 -4 -20 -9 0 -5 -20 -19 -45 -31 -25 -12 -47
-26 -51 -31 -3 -5 -13 -9 -23 -9 -10 0 -23 -12 -29 -26 -7 -14 -16 -23 -21
-20 -4 3 -16 -3 -26 -14 -10 -11 -26 -20 -35 -20 -9 0 -25 -9 -35 -20 -9 -10
-20 -18 -24 -18 -3 1 -20 -5 -37 -15 -18 -9 -54 -21 -80 -27 -47 -11 -138 -51
-203 -91 -19 -11 -66 -36 -105 -56 -39 -19 -78 -39 -86 -44 -8 -5 -23 -12 -32
-15 -10 -4 -18 -10 -18 -15 0 -5 -9 -9 -20 -9 -11 0 -20 -5 -20 -11 0 -6 -9
-9 -20 -6 -12 3 -20 0 -20 -7 0 -7 -22 -20 -49 -30 -28 -10 -55 -24 -62 -32
-6 -8 -18 -14 -25 -14 -17 0 -18 26 -1 39 6 6 25 22 41 36 16 14 32 25 37 25
4 0 14 6 21 13 7 8 31 25 53 39 22 14 58 42 80 61 22 20 45 37 52 37 6 0 13 3
15 8 2 4 24 18 51 31 42 21 59 33 104 71 7 5 17 10 22 10 6 0 16 9 23 20 7 11
16 20 20 20 4 0 20 12 35 26 46 43 99 79 160 110 32 15 64 34 71 41 7 7 18 13
23 13 5 0 15 11 21 25 7 15 20 25 32 25 12 0 27 9 34 20 7 11 19 20 27 20 8 0
15 5 15 10 0 6 5 10 11 10 6 0 24 14 40 31 l29 31 -23 19 c-30 25 -112 26
-126 1 -6 -9 -11 -12 -11 -7 0 16 -316 13 -332 -3 -18 -18 -36 -15 -43 8 -3
11 -13 20 -22 20 -8 0 -26 9 -40 20 -14 11 -31 20 -38 20 -7 0 -15 9 -18 20
-3 11 -1 20 4 20 5 0 9 16 9 36 0 46 35 98 61 91 14 -4 19 0 19 14 0 12 7 19
20 19 11 0 20 4 20 8 0 15 53 35 124 48 38 7 81 21 96 32 45 34 124 70 176 81
124 26 177 40 187 50 5 5 16 7 23 4 8 -3 14 0 14 6 0 15 37 14 43 -1 4 -9 8
-9 14 -3 19 23 61 35 112 31 31 -2 62 1 73 7 14 9 23 9 38 -1 15 -9 20 -9 20
-1 0 7 8 5 19 -5 19 -17 20 -17 31 4 11 20 18 22 72 18 53 -4 61 -2 78 19 20
26 36 30 43 11 3 -9 12 -6 29 10 13 12 30 22 37 22 47 0 171 101 171 140 0 11
6 20 13 20 15 1 67 46 67 58 0 6 10 17 23 25 12 8 45 36 72 61 28 25 53 45 58
46 4 0 7 4 7 9 0 5 15 25 33 44 59 65 87 105 87 125 0 12 9 27 20 35 18 12 21
27 23 99 2 54 8 92 16 102 11 14 11 16 -2 16 -13 0 -12 7 8 36 14 20 26 49 26
63 2 23 2 24 6 4 5 -25 23 -32 23 -8 0 22 51 67 75 68 15 0 30 13 46 39 13 22
34 44 47 49 17 7 22 14 17 28 -3 11 0 23 7 28 22 14 44 75 47 127 1 27 9 62
17 77 7 15 14 40 14 55 0 27 12 74 33 124 5 14 9 45 8 70 -1 25 2 40 6 33 4
-6 8 17 9 50 1 34 6 76 12 92 6 17 14 47 17 68 4 23 11 37 20 37 10 0 15 11
16 33 0 17 3 26 6 19 4 -10 8 -10 19 -1 18 15 18 29 -1 29 -8 0 -15 5 -15 10
0 6 16 10 36 10 27 0 41 -7 56 -26 20 -24 21 -24 37 -7 45 50 50 113 11 145
-27 22 -34 22 -54 3 -8 -8 -28 -15 -45 -15 -24 0 -31 -4 -31 -20 0 -11 -4 -20
-10 -20 -6 0 -6 9 0 26 12 30 13 54 3 53 -21 -3 -33 2 -28 12 4 5 -1 19 -11
30 -11 12 -17 33 -16 53 1 18 -4 46 -13 62 -19 36 -19 48 -1 64 8 6 16 21 18
33 7 48 116 64 171 25 18 -12 34 -26 35 -30 5 -11 50 -10 57 2 3 6 15 10 26
10 23 0 32 21 49 115 10 61 9 88 -9 208 -12 77 -21 157 -21 178 0 21 -4 39
-10 39 -5 0 -10 18 -10 40 0 22 -4 40 -10 40 -5 0 -10 11 -10 25 0 14 -4 25
-10 25 -5 0 -10 -11 -10 -25 0 -14 -4 -25 -10 -25 -5 0 -10 11 -10 25 0 14 -8
33 -18 43 -23 23 -46 78 -38 91 4 5 2 13 -4 16 -6 4 -10 14 -9 23 1 10 1 23 0
30 -1 9 -171 12 -817 12 -449 0 -814 -3 -812 -7 17 -36 45 -73 56 -73 6 0 12
-4 12 -10 0 -5 -5 -10 -11 -10 -6 0 -9 -8 -7 -17 2 -13 15 -17 56 -17 28 -1
52 3 52 8 0 5 6 3 14 -3 10 -8 16 -9 21 -1 10 16 23 12 30 -9 3 -12 15 -20 28
-20 12 0 32 -1 45 -1 12 0 22 -5 22 -12 0 -7 18 -9 56 -5 31 3 62 3 70 0 19
-7 18 -23 -1 -23 -8 0 -15 -4 -15 -10 0 -5 11 -10 25 -10 19 0 25 -5 25 -20 0
-12 12 -32 28 -45 18 -17 23 -27 16 -32 -8 -6 -9 -39 -3 -116 5 -60 11 -113
14 -118 4 -5 2 -9 -3 -9 -15 0 -1 -51 18 -63 10 -6 16 -17 13 -24 -3 -7 0 -13
6 -13 6 0 11 -11 11 -24 0 -14 5 -28 10 -31 13 -8 13 -100 0 -145 -11 -37 -3
-199 11 -221 6 -10 11 -10 23 0 14 12 16 4 16 -83 l0 -96 -40 0 c-24 0 -40 -5
-40 -12 0 -6 -18 8 -40 32 -27 29 -40 38 -40 27 0 -21 -18 -21 -44 -2 -20 15
-20 15 0 15 19 1 19 1 0 15 -11 8 -28 15 -39 15 -10 0 -16 4 -13 9 9 14 -29
42 -48 35 -18 -7 -20 0 -6 25 7 14 4 23 -15 40 -14 11 -29 21 -35 21 -5 0 -7
7 -4 15 9 21 -15 46 -40 43 -15 -2 -21 2 -20 15 1 10 -11 28 -27 39 -16 12
-29 27 -29 33 0 6 -16 17 -36 24 -19 7 -38 19 -41 27 -3 7 -21 23 -41 35 -46
28 -129 114 -148 154 -8 17 -18 37 -23 45 -26 48 -28 57 -19 74 6 11 6 22 -2
31 -8 10 -8 24 0 56 9 32 9 44 0 49 -9 6 -8 15 3 36 18 34 11 84 -10 84 -11 0
-14 7 -11 25 4 19 1 25 -13 25 -13 0 -19 7 -19 21 0 12 -8 23 -20 26 -11 3
-20 9 -20 14 0 5 -18 9 -40 9 -35 0 -40 3 -40 23 0 12 -9 28 -21 35 -12 7 -18
16 -15 19 8 9 -14 33 -30 33 -8 0 -14 -7 -14 -15 0 -8 -4 -15 -10 -15 -26 0 0
50 35 65 17 8 15 10 -14 13 -19 2 -46 -2 -59 -10 -20 -10 -26 -10 -29 0 -4 9
-44 12 -159 12 l-154 0 -1 -42 c-1 -35 -2 -38 -8 -18 l-7 25 -15 -22 c-7 -13
-24 -23 -36 -23 -16 0 -23 -6 -23 -20 0 -16 -7 -20 -34 -20 -49 0 -146 -39
-146 -59 0 -9 -13 -32 -29 -51 -27 -32 -31 -34 -67 -25 -29 8 -40 16 -42 33
-3 19 -10 22 -43 22 -36 0 -40 2 -37 23 2 17 9 22 35 22 17 0 35 3 39 8 4 4
-11 7 -33 7 -45 0 -53 -10 -53 -66 0 -19 -4 -34 -10 -34 -5 0 -10 18 -10 40 0
22 -4 40 -10 40 -5 0 -10 -18 -10 -40 0 -53 -18 -51 -23 3 -2 23 -4 2 -6 -48
-1 -73 -4 -86 -13 -70 -6 11 -24 33 -40 48 -25 26 -28 26 -28 9 0 -16 -8 -21
-47 -25 -41 -4 -51 -1 -70 19 -12 13 -27 24 -33 24 -5 0 -10 9 -10 20 0 16 -7
20 -32 20 -25 0 -29 -3 -20 -12 17 -17 15 -28 -4 -28 -12 0 -11 -5 7 -20 l24
-20 -22 -19 c-13 -11 -33 -17 -45 -15 -13 2 -17 2 -10 -2 6 -3 12 -23 12 -44
0 -22 -5 -40 -12 -43 -7 -2 -5 -3 5 -2 9 2 17 -1 17 -5 0 -5 9 -12 20 -15 11
-3 20 -10 20 -14 0 -11 -51 -33 -59 -25 -3 4 0 9 7 11 19 7 14 23 -7 23 -24 0
-36 -16 -19 -23 10 -4 10 -8 -1 -15 -21 -15 -41 -3 -38 21 2 19 -4 22 -40 25
-34 2 -43 0 -43 -12 0 -21 -13 -20 -33 2 -23 26 -21 32 11 33 26 0 26 1 4 9
-13 6 -32 6 -47 0 -20 -8 -25 -17 -26 -47 -1 -48 -21 -115 -35 -120 -6 -2 -15
6 -19 19 -7 20 -9 18 -12 -14 -4 -36 -6 -38 -41 -38 -29 0 -39 -5 -48 -23 -10
-23 -9 -24 35 -22 34 2 36 1 9 -2 -29 -3 -38 -9 -38 -22 0 -10 -7 -24 -15 -31
-8 -7 -15 -16 -15 -21 0 -5 7 -9 15 -9 8 0 15 -4 15 -10 0 -5 -18 -10 -39 -10
-29 0 -41 -5 -44 -17 -3 -13 -5 -12 -6 5 -1 20 -22 52 -34 52 -2 0 -2 -22 1
-50 3 -30 1 -50 -6 -50 -5 0 -13 -11 -16 -25 -4 -14 -11 -25 -16 -25 -6 0 -10
11 -10 25 0 16 -6 25 -15 25 -11 0 -15 -11 -15 -40 0 -33 3 -40 20 -40 31 0
24 -17 -12 -29 l-33 -12 25 -19 c25 -20 25 -20 3 -20 -24 0 -31 -14 -13 -25
17 -10 11 -25 -10 -25 -15 0 -20 7 -20 25 0 20 -5 25 -25 25 -14 0 -25 5 -25
10 0 6 -10 20 -21 31 -17 17 -27 20 -52 12 -38 -10 -45 -28 -15 -38 22 -7 22
-8 -6 -12 -20 -3 -32 0 -39 12 -7 13 -11 14 -17 5 -15 -25 13 -38 68 -33 44 5
52 3 52 -11 0 -12 -10 -16 -40 -16 -29 0 -40 -4 -40 -15 0 -11 11 -15 39 -15
22 0 42 -4 45 -8 3 -5 -3 -8 -12 -8 -59 0 -72 -5 -72 -24 0 -25 -12 -26 -33
-2 -22 24 -21 32 1 32 15 1 15 2 -2 15 -25 19 -46 19 -46 0 0 -18 -76 -22 -82
-4 -3 9 -25 9 -83 2 -59 -7 -69 -11 -37 -12 40 -1 42 -3 42 -31 0 -28 2 -30
40 -30 22 0 40 -4 40 -9 0 -10 -148 -26 -157 -17 -4 3 12 6 35 6 23 0 42 5 42
10 0 6 -18 10 -40 10 -29 0 -40 4 -40 15 0 20 -13 19 -34 -3 -11 -13 -14 -28
-10 -50 4 -17 3 -39 -1 -49 -6 -16 -8 -16 -16 5 -4 12 -6 29 -2 38 8 21 -14
34 -59 34 -34 0 -37 2 -41 33 -4 31 -4 31 -5 -5 -2 -48 -22 -50 -22 -3 0 19
-5 35 -11 35 -7 0 -10 -15 -7 -39 l3 -40 -53 -15 c-48 -13 -57 -13 -96 1 -34
13 -42 20 -38 35 6 24 -5 23 -17 -1 -7 -13 -7 -29 0 -50 12 -35 17 -36 54 -19
32 14 45 1 37 -39 l-5 -26 -18 21 c-9 12 -29 22 -42 22 -33 0 -53 52 -37 94
12 33 12 36 2 36 -8 0 -37 -53 -75 -140 -86 -192 -108 -232 -122 -220 -11 9
-15 9 -15 1 0 -6 5 -11 10 -11 14 0 12 -23 -5 -56 -14 -27 -13 -29 7 -37 38
-14 50 -28 37 -43 -13 -16 4 -44 28 -44 8 0 28 -13 45 -30 28 -28 28 -30 8
-30 -12 0 -31 5 -42 11 -14 8 -23 8 -31 0 -8 -8 -5 -11 11 -11 15 0 22 -6 22
-19 0 -11 5 -23 10 -26 6 -3 10 -15 10 -25 0 -14 -5 -18 -18 -13 -9 3 -14 3
-10 -2 4 -4 18 -9 30 -10 13 -1 26 -3 31 -4 4 0 7 -10 7 -21 0 -11 -3 -21 -7
-21 -5 -1 -18 -3 -31 -4 -33 -3 -40 -15 -9 -15 14 0 28 -6 30 -12 4 -10 8 -10
15 1 7 10 11 1 13 -32 5 -59 -8 -77 -55 -77 -35 0 -36 -1 -36 -40 0 -27 5 -42
18 -49 24 -14 4 -45 -32 -49 -32 -4 -38 -42 -6 -42 11 0 20 -4 20 -10 0 -5 -9
-10 -20 -10 -11 0 -20 5 -20 10 0 6 -9 10 -20 10 -13 0 -20 7 -20 20 0 13 7
20 20 20 11 0 20 5 20 10 0 6 9 10 20 10 11 0 20 5 20 10 0 15 -70 12 -86 -4
-8 -8 -14 -31 -14 -50 0 -20 -5 -36 -11 -36 -7 0 -10 31 -8 91 3 85 2 93 -20
110 -16 13 -23 30 -24 54 -1 19 -4 35 -7 35 -8 0 -44 -107 -42 -128 1 -17 -15
-92 -25 -122 -3 -8 -7 -28 -9 -45 -7 -60 -14 -77 -29 -71 -8 3 -15 1 -15 -4 0
-6 11 -10 24 -10 27 0 66 42 66 71 0 9 5 19 11 21 5 2 7 11 3 22 -5 14 -9 15
-16 4 -7 -9 -8 -8 -5 7 2 11 9 19 15 18 7 -2 12 4 12 12 0 8 -4 15 -8 15 -4 0
-6 16 -4 35 4 29 6 32 18 20 16 -16 18 -35 4 -35 -5 0 -10 -4 -10 -10 0 -5 6
-10 14 -10 9 0 15 -20 20 -61 8 -84 8 -99 -4 -99 -5 0 -10 7 -10 16 0 8 -4 12
-10 9 -5 -3 -10 -26 -10 -51 0 -31 -6 -51 -22 -69 -26 -30 -38 -32 -38 -5 0
23 -25 27 -33 6 -3 -8 -17 -22 -30 -31 -19 -12 -30 -13 -53 -5 l-29 11 25 19
c14 11 19 20 12 20 -24 0 -51 44 -52 83 0 39 -8 45 -28 25 -17 -17 -15 -26 5
-30 14 -2 11 -10 -17 -38 -33 -33 -33 -35 -12 -38 27 -4 28 -14 4 -35 -25 -23
-32 -21 -32 8 0 23 -4 25 -40 25 -22 0 -40 -4 -40 -10 0 -5 -18 -10 -40 -10
-30 0 -40 -4 -40 -16 0 -8 -4 -12 -10 -9 -13 8 -13 45 0 45 6 0 10 11 10 25 0
14 -4 25 -9 25 -15 0 -51 -51 -51 -71 0 -10 -4 -21 -10 -24 -13 -8 -13 -55 0
-55 6 0 10 -9 10 -20 0 -11 -4 -20 -10 -20 -6 0 -10 -28 -10 -65 0 -51 3 -65
15 -65 8 0 15 -4 15 -10 0 -5 -7 -10 -15 -10 -23 0 -19 -47 5 -53 26 -7 26
-27 0 -34 -28 -7 -25 -23 5 -23 32 0 32 -13 -1 -39 -22 -17 -41 -21 -105 -21
-54 0 -79 -4 -79 -12 0 -6 -18 8 -40 32 -39 42 -40 43 -40 17 0 -37 -14 -34
-47 9 -15 20 -29 31 -31 25 -5 -15 -55 -14 -70 1 -7 7 -12 31 -12 55 l0 43
-40 0 c-29 0 -40 -4 -40 -15 0 -11 -11 -15 -40 -15 l-40 0 0 80 0 80 41 0 c35
0 47 6 77 38 l36 37 -34 5 -34 5 32 34 c19 18 32 35 29 37 -2 2 -45 5 -95 6
l-92 2 0 38 c0 43 -4 42 123 38 51 -1 77 2 77 9 0 7 -22 11 -58 11 -32 0 -62
3 -65 6 -4 4 -49 8 -102 10 -76 2 -95 0 -95 -11 0 -9 14 -15 43 -17 l42 -3 1
-45 c1 -25 0 -33 -3 -17 -4 23 -9 27 -39 27 -46 0 -74 26 -74 70 0 36 -40 115
-47 93 -2 -6 0 -41 5 -77 5 -36 5 -66 0 -66 -4 0 -8 -7 -8 -15 0 -15 16 -20
58 -16 16 1 22 -4 22 -18 0 -16 10 -20 80 -26 58 -5 80 -11 80 -21 0 -10 12
-14 40 -14 33 0 40 -3 40 -20 0 -18 -7 -20 -55 -20 l-55 0 0 -40 c0 -22 4 -40
10 -40 5 0 10 -37 12 -82 l3 -83 43 -3 c34 -3 42 -7 42 -23 0 -16 -7 -19 -40
-19 -29 0 -40 -4 -40 -15 0 -11 12 -15 50 -15 51 0 57 -4 40 -30 -8 -13 -10
-12 -10 3 0 13 -8 17 -34 17 -19 0 -41 3 -50 6 -13 5 -16 -2 -16 -35 0 -34 -3
-41 -20 -41 -17 0 -20 7 -20 40 0 22 5 40 10 40 11 0 13 87 4 179 l-7 61 -43
0 -44 0 0 40 c0 22 -4 40 -10 40 -6 0 -10 -40 -10 -100 l0 -100 39 0 c33 0 40
4 44 23 2 12 5 3 6 -20 1 -41 0 -43 -29 -43 -23 0 -30 -4 -30 -20 0 -11 -7
-20 -15 -20 -8 0 -15 9 -15 20 0 11 -7 20 -15 20 -19 0 -19 -14 0 -30 8 -7 15
-25 15 -41 0 -27 3 -29 40 -29 22 0 40 -4 40 -10 0 -5 -18 -10 -40 -10 -29 0
-40 -4 -40 -15 0 -10 10 -15 34 -15 56 0 66 -8 66 -51 0 -21 5 -39 10 -39 6 0
10 -9 10 -20 0 -13 -7 -20 -20 -20 -14 0 -20 -7 -21 -22 -1 -14 -6 -5 -12 20
-10 43 -27 57 -27 23 0 -11 -5 -23 -10 -26 -6 -4 -10 5 -10 19 0 14 -4 26 -10
26 -5 0 -10 18 -10 40 0 34 -3 40 -21 40 -11 0 -28 -8 -37 -17 -16 -16 -17
-15 -20 5 -3 18 -10 22 -42 22 -21 0 -45 -7 -54 -15 -25 -26 -71 -29 -108 -9
-18 11 -35 21 -38 24 -3 3 -22 13 -42 22 -30 14 -38 23 -38 44 0 20 -4 25 -16
20 -8 -3 -34 4 -57 16 -33 17 -64 23 -144 26 -57 2 -103 8 -103 13 0 5 10 9
23 9 21 1 21 1 3 12 -15 8 -21 8 -24 0 -2 -7 -18 -12 -35 -12 l-32 0 25 -20
25 -19 -25 -9 c-14 -5 -28 -8 -32 -5 -5 2 -8 -3 -8 -11 0 -11 -11 -16 -37 -18
-35 -1 -36 -2 -7 -5 26 -3 31 -8 31 -34 0 -26 -4 -29 -31 -30 -17 -1 -24 -3
-15 -6 25 -6 30 -57 14 -121 -14 -52 -14 -58 1 -69 14 -10 13 -14 -5 -32 -17
-17 -19 -25 -11 -41 7 -13 7 -26 2 -37 -7 -11 -5 -21 5 -31 12 -13 12 -17 -1
-31 -13 -14 -13 -20 -3 -30 9 -10 8 -15 -5 -25 -10 -7 -18 -19 -18 -26 0 -7 8
-19 18 -26 16 -13 16 -13 -3 -14 -15 0 -16 -3 -7 -12 17 -17 15 -31 -8 -56
-12 -12 -16 -22 -10 -22 19 0 10 -29 -12 -36 l-21 -6 24 -14 c13 -7 20 -13 14
-14 -16 0 -36 -51 -42 -107 -4 -35 -10 -53 -19 -53 -8 0 -14 -4 -14 -8 0 -5
-13 -7 -28 -4 -25 3 -27 7 -24 37 2 18 -4 59 -14 92 -18 59 -25 102 -45 253
-6 47 -15 90 -21 97 -7 9 -7 13 1 13 7 0 10 23 9 66 -1 55 -5 68 -20 72 -22 5
-24 22 -2 22 12 0 15 6 10 23 -3 12 -6 26 -6 30 0 5 -4 6 -9 3 -5 -3 -9 36
-10 87 -1 50 -6 94 -11 95 -6 2 -11 20 -11 40 -2 67 -13 97 -34 95 -31 -3 -54
14 -48 37 4 14 0 20 -11 20 -9 0 -16 -7 -16 -15 0 -8 -4 -15 -9 -15 -5 0 -7
-8 -5 -17 3 -12 -8 -28 -31 -46 -34 -27 -38 -28 -54 -13 -10 9 -25 14 -33 11
-20 -8 -42 -52 -44 -90 -3 -35 -27 -55 -66 -55 -15 0 -28 -4 -28 -10 0 -5 5
-10 10 -10 6 0 10 -11 10 -25 0 -14 -5 -25 -11 -25 -6 0 -9 -12 -7 -27 3 -25
0 -27 -31 -29 -30 -2 -42 6 -83 48 -30 31 -48 44 -48 34 0 -9 -7 -16 -15 -16
-8 0 -15 -4 -15 -10 0 -5 -15 -17 -32 -26 -18 -9 -35 -20 -38 -23 -7 -9 -41
-29 -67 -40 -12 -6 -24 -19 -28 -30 -3 -11 -15 -23 -26 -26 -10 -4 -19 -11
-19 -16 0 -5 -6 -9 -13 -9 -8 0 -20 -12 -28 -27 -13 -26 -92 -113 -102 -113
-8 0 -97 -90 -97 -98 0 -4 -19 -23 -42 -42 -23 -19 -50 -43 -60 -52 -10 -10
-22 -18 -28 -18 -5 0 -10 -7 -10 -15 0 -8 -6 -15 -14 -15 -7 0 -21 -12 -31
-26 -26 -40 -131 -141 -153 -148 -11 -4 -27 -17 -35 -29 -8 -12 -46 -53 -83
-92 -38 -38 -68 -73 -66 -77 1 -5 -3 -8 -9 -8 -6 0 -60 -51 -119 -112 -60 -62
-125 -129 -145 -150 -20 -20 -36 -39 -35 -43 0 -3 -15 -19 -35 -35 -19 -15
-62 -54 -94 -86 -33 -33 -80 -78 -105 -101 -25 -23 -46 -47 -46 -53 0 -6 -4
-9 -9 -5 -5 3 -19 -8 -31 -25 -12 -16 -28 -30 -36 -30 -8 0 -14 -7 -14 -15 0
-8 -5 -15 -12 -15 -6 0 -20 -7 -30 -17 -15 -13 -18 -14 -18 -1 0 8 10 24 23
35 46 44 77 80 77 91 0 7 9 12 20 12 11 0 20 6 20 13 0 8 17 30 38 49 20 20
48 50 62 68 35 45 141 159 228 243 41 40 90 88 110 108 21 19 52 52 70 72 18
20 37 37 42 37 6 0 10 5 10 10 0 12 12 28 53 72 15 16 27 31 27 32 0 2 40 44
89 95 49 50 91 95 93 100 6 17 128 141 138 141 5 0 10 9 10 20 0 10 6 23 13
27 7 4 23 23 36 41 12 17 28 32 35 32 17 0 56 46 56 66 0 8 4 13 9 9 6 -3 15
0 21 7 41 49 50 63 50 77 0 14 2 14 10 1 7 -11 11 -9 19 13 6 15 15 27 19 27
5 0 27 16 48 35 21 19 35 35 31 35 -12 0 26 36 46 43 9 4 17 15 17 26 0 10 7
21 15 25 8 3 15 16 15 30 0 18 7 26 27 31 19 4 23 9 14 14 -10 6 -9 10 3 14
20 8 21 27 1 27 -8 0 -15 4 -15 9 0 12 25 21 58 21 15 0 22 4 16 8 -6 4 -15
39 -18 77 -8 77 -24 125 -43 125 -6 0 -14 -8 -16 -17 -2 -10 -2 -2 0 17 3 19
9 37 14 38 5 2 7 8 3 13 -6 11 -34 -14 -34 -31 0 -6 -6 -10 -12 -7 -9 2 -12
20 -10 55 4 49 2 52 -20 52 -19 0 -24 -5 -23 -27 0 -14 -6 -28 -13 -30 -8 -3
-12 6 -12 26 0 17 -4 31 -10 31 -5 0 -10 -18 -10 -40 0 -29 -4 -40 -15 -40 -8
0 -15 -5 -15 -12 0 -6 -3 -8 -6 -5 -4 4 0 17 9 30 20 31 11 66 -20 78 -40 15
-63 11 -63 -11 0 -17 -7 -20 -40 -20 -33 0 -40 -3 -40 -20 0 -18 -7 -20 -80
-20 -84 0 -111 -16 -37 -23 l42 -4 -42 -1 c-36 -2 -43 -5 -43 -22 0 -26 -12
-25 -36 1 -16 17 -16 22 -4 30 13 8 10 14 -13 34 -33 29 -35 45 -5 45 12 0 19
3 15 6 -3 4 -18 4 -32 0 -21 -5 -25 -12 -25 -46 0 -22 5 -40 10 -40 6 0 10
-18 10 -40 0 -22 -4 -40 -10 -40 -5 0 -10 18 -10 40 0 33 -3 40 -20 40 -17 0
-20 7 -20 40 0 22 -4 40 -10 40 -5 0 -10 5 -10 10 0 6 -12 21 -27 34 -25 22
-26 25 -11 40 9 9 21 16 27 16 6 0 11 7 11 15 0 8 -9 15 -20 15 -11 0 -20 -4
-20 -10 0 -5 -9 -10 -20 -10 -11 0 -20 7 -20 15 0 8 7 15 15 15 8 0 15 5 15
10 0 6 -7 10 -15 10 -8 0 -15 -4 -15 -10 0 -5 -18 -10 -40 -10 -22 0 -40 5
-40 10 0 6 11 10 25 10 14 0 25 4 25 9 0 5 -11 18 -25 29 -14 11 -25 25 -25
31 0 6 -4 11 -9 11 -5 0 -11 10 -13 23 -2 12 -10 22 -18 22 -8 0 -16 -10 -18
-22 -4 -28 -22 -30 -22 -3 0 17 -7 20 -40 20 -33 0 -40 -3 -40 -19 0 -11 8
-22 18 -24 9 -2 4 -3 -12 -1 -16 2 -41 4 -57 4 -19 0 -29 5 -29 15 0 8 -4 15
-10 15 -5 0 -10 -4 -10 -10 0 -5 -9 -10 -20 -10 -11 0 -20 5 -20 10 0 6 -4 10
-10 10 -5 0 -10 -7 -10 -15 0 -8 -9 -15 -20 -15 -15 0 -20 7 -20 25 0 21 5 25
30 25 17 0 30 5 30 10 0 6 9 10 20 10 11 0 20 -4 20 -10 0 -5 5 -10 10 -10 11
0 3 74 -11 100 -5 10 -10 2 -15 -27 -7 -46 -30 -58 -37 -20 l-4 22 -2 -22 c-1
-16 -7 -23 -21 -23 -11 0 -20 -7 -20 -15 0 -13 -10 -14 -57 -9 -32 4 -59 11
-61 16 -2 4 -18 8 -35 8 l-32 0 25 -20 25 -19 -32 -12 c-32 -11 -42 -24 -25
-31 5 -1 7 -20 4 -40 -4 -34 -6 -37 -25 -26 -20 10 -20 11 -2 24 17 13 17 15
-9 39 -28 26 -67 32 -116 18 -23 -7 -21 -8 14 -13 l40 -5 -36 -37 c-19 -21
-40 -38 -47 -38 -6 0 -11 -7 -11 -15 0 -8 -9 -19 -20 -25 -11 -6 -20 -21 -20
-33 0 -49 -16 -43 -34 14 -10 32 -21 59 -25 59 -4 0 -15 -22 -24 -48 -16 -42
-23 -50 -54 -58 -47 -12 -51 -26 -13 -42 33 -15 35 -20 19 -42 -7 -10 -12 -11
-15 -3 -3 6 -14 21 -24 33 -17 20 -25 21 -94 15 -54 -5 -76 -4 -76 4 0 6 17
11 40 11 22 0 40 5 40 10 0 6 -18 10 -40 10 -53 0 -52 18 1 22 l41 3 -41 44
c-23 25 -41 54 -41 67 0 13 -4 26 -10 29 -5 3 -10 28 -10 54 0 50 -12 71 -42
71 -11 0 -18 7 -18 20 0 13 7 20 19 20 11 0 23 5 26 10 3 6 2 10 -4 10 -5 0
-12 19 -14 43 l-4 42 -1 -42 c-2 -51 -22 -58 -22 -9 0 44 -9 66 -26 66 -17 0
-19 37 -1 43 7 2 8 8 3 13 -5 5 -11 4 -13 -3 -10 -29 -23 -10 -23 33 0 53 -20
81 -47 65 -16 -9 -16 -10 5 -11 27 0 29 -26 2 -33 -11 -3 -24 -17 -30 -31 -16
-42 -32 -31 -28 19 l3 45 -37 0 c-20 0 -42 2 -50 3 -7 2 -10 2 -5 0 4 -3 7
-22 7 -44 0 -22 5 -39 11 -39 8 0 9 -23 4 -77 -4 -43 -9 -80 -11 -82 -2 -2
-22 15 -44 39 l-40 43 0 -46 c0 -38 -3 -47 -17 -46 -11 0 -13 3 -5 6 7 2 12
22 12 44 0 30 -4 39 -17 39 -15 1 -14 4 5 20 l24 20 -29 24 -28 25 28 1 c18 0
27 -5 27 -16 0 -9 6 -14 12 -12 16 6 11 90 -5 100 -7 4 -29 5 -49 1 -25 -4
-38 -2 -38 6 0 6 7 11 16 11 9 0 24 10 35 23 15 18 20 19 28 8 5 -7 14 -10 20
-7 16 10 13 36 -4 36 -8 0 -15 7 -15 15 0 8 -4 15 -10 15 -5 0 -10 -7 -10 -15
0 -8 -7 -15 -15 -15 -18 0 -20 37 -3 42 15 5 4 49 -22 79 l-19 24 -1 -27 c0
-35 -21 -80 -34 -75 -7 2 -10 25 -7 57 2 32 -1 55 -8 60 -7 3 -14 23 -18 43
-5 34 -4 37 18 37 22 1 23 2 6 14 -19 15 -109 10 -115 -5 -2 -5 -10 -9 -18 -9
-10 0 -14 12 -14 40 0 22 -4 40 -8 40 -5 0 -17 27 -28 60 -19 59 -19 60 -56
60 -28 0 -38 -4 -38 -16 0 -11 -5 -14 -16 -10 -9 3 -27 6 -40 6 -39 0 -28 17
16 24 42 6 53 21 23 29 -10 3 -3 5 15 6 22 1 32 5 29 14 -2 6 -11 11 -20 11
-9 -1 -21 10 -27 25 -12 31 -50 58 -59 43 -3 -5 -15 -12 -26 -14 -20 -5 -20
-5 -1 -13 13 -6 21 -4 24 3 4 13 32 17 32 5 -1 -14 -29 -58 -30 -46 0 8 -13 7
-47 -3 -62 -19 -113 -18 -113 1 0 11 11 15 40 15 22 0 40 5 40 10 0 6 -18 10
-39 10 -22 0 -41 5 -44 13 -2 6 -8 -6 -12 -28 -6 -27 -4 -40 4 -43 6 -2 11
-11 11 -19 0 -29 -29 7 -42 51 l-11 41 -8 -35 c-4 -20 -3 -37 2 -41 6 -3 3
-11 -6 -19 -13 -11 -15 -9 -15 14 0 24 -4 26 -40 26 -22 0 -40 -4 -40 -10 0
-5 -7 -10 -16 -10 -15 0 -16 8 -11 61 5 39 3 58 -3 54 -6 -3 -10 -13 -10 -21
0 -24 -19 -16 -26 11 -3 14 -4 56 -2 93 3 55 1 70 -14 86 -12 13 -18 15 -18 7
0 -11 -3 -11 -15 -1 -8 6 -13 22 -12 33 2 18 -4 22 -29 24 -18 0 -42 7 -55 14
-17 9 -24 9 -27 0 -2 -6 -21 -11 -43 -11 -35 0 -39 3 -39 25 0 16 6 25 16 25
14 0 14 2 3 16 -12 14 -14 14 -21 -5 -4 -12 -12 -21 -18 -21 -5 0 -13 -1 -17
-2 -3 -2 -7 7 -8 19 -1 13 -9 31 -18 41 -9 10 -17 30 -17 44 0 14 -7 31 -16
39 -11 9 -14 22 -9 46 6 35 -10 78 -26 68 -5 -4 -13 2 -17 12 -4 10 -18 19
-32 21 -14 2 -35 4 -48 6 -32 4 -51 24 -33 35 11 7 9 14 -12 34 -26 23 -38 55
-17 42 6 -4 10 12 10 39 0 39 3 46 20 46 13 0 20 7 20 19 0 15 10 19 53 24 28
3 65 11 82 19 l29 13 -44 6 -45 6 41 1 41 2 7 53 c8 72 8 97 -3 97 -5 0 -7 -9
-4 -20 7 -25 -13 -26 -39 -3 -17 15 -31 17 -103 13 -11 -1 -88 2 -172 6 -131
6 -154 5 -167 -9 -19 -18 -21 -44 -5 -49 8 -3 7 -13 -4 -33 -16 -29 -16 -29
-17 -6 0 14 -7 33 -17 43 -15 17 -15 19 2 38 18 20 17 20 -3952 20 l-3970 0
10 -55 c11 -57 0 -113 -30 -162 -7 -13 -10 -23 -6 -23 5 0 -13 -14 -39 -30
-42 -26 -58 -30 -128 -32 -76 -1 -83 1 -118 29 -51 41 -93 129 -100 209 l-5
64 -598 0 c-393 0 -599 -3 -599 -10 0 -5 5 -10 10 -10 6 0 13 -8 17 -17 3 -10
13 -26 22 -37 12 -13 16 -38 15 -95 -1 -63 -5 -83 -25 -114 -31 -47 -106 -88
-174 -94 -54 -5 -125 11 -125 28 0 6 -4 8 -9 4 -15 -8 -69 65 -86 115 -29 91
-30 140 0 213 7 16 -71 17 -1549 17 l-1556 0 0 -11250z m10438 11133 c28 -30
32 -39 19 -41 -21 -4 -28 -87 -12 -139 5 -15 3 -23 -4 -23 -6 0 -11 6 -11 14
0 23 -39 27 -53 5 -28 -45 -105 0 -109 63 -7 122 -1 144 33 133 13 -4 19 -1
19 9 0 12 10 16 41 16 35 0 47 -6 77 -37z m16122 -298 c0 -8 7 -15 15 -15 49
0 100 -62 88 -108 -4 -17 -13 -22 -39 -22 -18 0 -36 5 -39 10 -3 6 -14 10 -24
10 -19 0 -91 74 -91 95 0 7 -3 20 -6 29 -5 13 2 16 45 16 39 0 51 -4 51 -15z
m5496 -231 c36 -24 53 -63 43 -99 -5 -16 -7 -35 -5 -42 3 -6 -2 -14 -10 -17
-8 -3 -22 -22 -30 -42 -10 -24 -25 -39 -45 -46 -21 -7 -28 -15 -24 -25 4 -12
0 -14 -21 -9 -15 4 -32 2 -40 -5 -23 -19 -60 -2 -84 38 l-22 37 19 60 c11 33
27 64 37 70 10 6 31 23 47 38 19 17 36 24 49 21 12 -3 22 1 26 11 3 9 10 13
15 10 5 -3 9 0 9 5 0 15 6 14 36 -5z m-4872 -289 c45 -21 83 -47 96 -64 24
-35 24 -38 5 -57 -15 -16 -80 -11 -91 7 -3 5 -14 9 -24 9 -10 0 -20 4 -22 8
-1 4 -18 18 -35 30 -30 21 -56 76 -46 95 8 15 43 6 117 -28z m2121 -1567 c49
-58 26 -159 -54 -231 -46 -41 -78 -49 -175 -45 l-69 3 -29 55 c-19 37 -28 70
-28 102 0 26 -4 58 -9 71 -19 49 8 60 209 85 73 10 125 -4 155 -40z m-16925
-184 c58 -7 120 -28 120 -40 0 -7 9 -18 20 -24 11 -6 20 -17 20 -26 0 -8 7
-17 15 -20 12 -5 15 -25 15 -90 0 -71 -4 -93 -25 -135 -32 -62 -106 -134 -165
-161 -49 -22 -161 -42 -170 -30 -3 4 -24 20 -48 35 -24 15 -45 34 -49 42 -3 8
-11 15 -19 15 -8 0 -14 5 -14 10 0 6 -7 10 -16 10 -9 0 -14 6 -11 13 2 6 -3
20 -12 30 -20 23 -22 122 -4 155 8 12 11 22 8 22 -4 0 3 12 14 26 12 15 21 31
21 35 0 5 8 17 18 27 9 10 29 32 44 50 15 17 39 37 55 44 35 14 123 27 143 20
8 -2 26 -6 40 -8z m6781 -444 c28 0 39 -4 39 -15 0 -8 9 -15 20 -15 13 0 20
-7 20 -20 0 -14 6 -20 18 -18 12 2 18 -5 20 -22 2 -14 9 -31 15 -39 9 -11 9
-15 0 -18 -7 -3 -13 -12 -13 -21 -1 -15 -2 -15 -14 1 -16 21 -66 23 -66 2 0
-25 -20 -17 -38 14 -9 17 -25 32 -36 35 -13 3 -17 11 -13 25 3 12 1 21 -4 21
-5 0 -9 8 -9 18 0 10 -7 27 -15 38 -13 19 -12 23 8 45 l22 24 3 -28 c3 -24 7
-27 43 -27z m234 -211 c4 -10 15 -19 26 -19 16 0 19 -7 19 -40 0 -34 3 -40 21
-40 11 0 29 5 40 10 13 7 19 7 19 0 0 -5 -4 -10 -9 -10 -5 0 -14 -15 -21 -32
l-11 -33 -20 24 c-15 18 -23 21 -31 13 -18 -18 -36 -14 -43 8 -4 14 -13 19
-28 16 -12 -1 -16 -1 -9 1 21 8 13 21 -20 32 l-33 12 25 19 c14 11 28 20 33
20 4 0 7 14 7 31 0 26 2 30 15 19 8 -6 17 -20 20 -31z m2283 -277 c-4 -15 0
-17 22 -14 43 6 160 -15 179 -33 10 -8 32 -15 49 -15 18 0 32 -4 32 -8 0 -5
27 -20 60 -33 33 -13 60 -27 60 -31 0 -5 27 -8 61 -8 51 0 64 -4 80 -22 l18
-23 1 40 c1 35 2 38 14 23 7 -10 25 -18 40 -18 24 0 26 -3 26 -40 l0 -40 -40
0 c-31 0 -40 -4 -40 -17 -1 -27 -35 -63 -60 -63 -20 0 -53 -28 -89 -73 -12
-15 -12 -19 5 -32 18 -13 18 -14 2 -20 -12 -5 -18 -18 -18 -36 0 -19 -5 -29
-15 -29 -9 0 -36 -20 -61 -45 -24 -25 -49 -45 -54 -45 -5 0 -11 -8 -14 -17 -6
-18 -67 -63 -86 -63 -5 0 -10 -4 -10 -9 0 -5 -10 -11 -22 -13 -13 -2 -22 -9
-21 -15 2 -7 -6 -15 -17 -18 -11 -4 -20 -11 -20 -16 0 -5 -6 -9 -13 -9 -7 0
-28 -13 -47 -30 -18 -16 -49 -32 -69 -36 -58 -9 -64 -13 -58 -34 4 -14 0 -20
-12 -20 -12 0 -17 8 -17 23 1 16 -5 23 -21 25 -25 4 -31 -16 -11 -36 9 -9 7
-12 -9 -12 -12 0 -23 8 -26 19 -4 18 -19 23 -117 36 -19 3 -45 5 -57 5 -13 0
-23 5 -23 10 0 6 -21 10 -47 10 -26 0 -60 4 -77 9 -72 22 -104 27 -149 23 -39
-3 -48 -7 -44 -21 3 -13 -3 -15 -40 -12 -34 2 -43 0 -43 -13 0 -8 -9 -20 -20
-26 -11 -6 -20 -17 -20 -25 0 -7 -3 -15 -7 -17 -11 -4 -50 -105 -57 -145 -3
-21 0 -37 9 -47 8 -8 15 -25 15 -39 0 -19 8 -26 40 -36 22 -6 40 -16 40 -21 0
-6 9 -10 20 -10 10 0 23 -6 27 -13 4 -8 16 -17 26 -20 11 -4 21 -16 24 -27 3
-11 11 -20 17 -20 7 0 34 -20 62 -45 78 -72 153 -100 223 -84 25 6 60 12 76
14 17 1 47 6 68 10 31 6 37 4 37 -9 0 -21 57 -46 105 -46 19 0 35 -4 35 -10 0
-5 9 -10 20 -10 18 0 19 -3 10 -20 -13 -25 -3 -68 19 -79 9 -5 76 -9 150 -10
103 0 137 -4 150 -15 11 -10 21 -12 31 -6 22 14 40 12 40 -5 0 -8 8 -15 18
-16 13 0 12 -2 -6 -9 -33 -14 -301 -27 -312 -16 -6 6 -17 3 -29 -8 -11 -10
-24 -15 -29 -12 -5 3 -23 0 -41 -7 -34 -12 -47 -41 -37 -79 6 -24 108 -151
159 -198 51 -48 151 -156 149 -162 -1 -4 9 -15 23 -24 14 -9 25 -20 25 -25 0
-4 21 -31 48 -59 26 -29 56 -68 67 -89 11 -21 26 -36 33 -33 7 2 12 -4 12 -13
0 -28 53 -103 75 -107 11 -2 24 -13 30 -25 5 -13 15 -23 22 -23 7 0 13 -10 13
-23 0 -13 6 -29 13 -36 10 -11 10 -14 0 -18 -7 -3 -13 -9 -13 -15 0 -6 7 -8
15 -4 18 6 45 -2 45 -15 0 -16 -81 -7 -93 11 -7 9 -25 20 -40 24 -26 6 -72 42
-119 93 -12 12 -26 20 -31 16 -6 -3 -7 -1 -3 5 4 7 2 12 -3 12 -6 0 -11 11
-11 24 0 17 -9 27 -31 36 -19 8 -35 24 -41 42 -6 15 -16 28 -24 28 -7 0 -18 9
-24 20 -6 11 -17 20 -25 20 -8 0 -15 6 -15 13 0 6 -18 31 -40 55 -22 24 -40
46 -40 50 0 4 -24 27 -52 52 -29 25 -81 73 -117 108 -35 34 -70 62 -78 62 -7
0 -13 5 -13 10 0 6 -6 10 -14 10 -8 0 -21 8 -28 18 -7 10 -24 26 -38 35 -14
10 -24 21 -22 25 7 15 -89 26 -123 13 -43 -15 -64 -5 -90 46 -22 43 -50 75
-80 90 -30 16 -465 18 -465 2 0 -7 -10 -3 -23 9 -15 14 -27 18 -37 12 -31 -19
-53 28 -26 56 18 17 82 19 89 2 4 -10 8 -10 14 -2 5 7 44 12 98 13 110 1 231
19 246 37 6 7 8 21 5 32 -8 23 -102 88 -176 122 -30 14 -61 31 -68 37 -7 7
-22 13 -33 13 -11 0 -22 7 -25 15 -4 8 -15 15 -25 15 -11 0 -24 10 -30 23 -6
13 -20 27 -32 32 -12 6 -26 20 -32 33 -5 12 -13 22 -17 22 -5 0 -8 6 -8 14 0
25 -56 35 -196 37 -73 1 -108 -4 -170 -24 -150 -48 -277 -65 -293 -38 -6 8
-17 3 -40 -18 -18 -17 -40 -31 -48 -31 -8 0 -22 -8 -31 -17 -15 -15 -17 -15
-20 -1 -5 27 -103 39 -143 18 -11 -6 -19 -7 -19 -1 0 5 -11 12 -25 15 -16 4
-25 13 -25 26 0 11 -7 20 -15 20 -8 0 -15 -9 -15 -21 0 -12 -4 -17 -11 -14 -6
4 -8 13 -5 21 3 8 1 14 -4 14 -14 0 -13 87 1 96 6 3 15 1 19 -6 5 -9 15 0 31
29 13 22 29 41 35 41 7 0 12 18 12 42 1 28 6 45 17 51 9 5 25 28 36 50 11 23
26 53 34 67 11 19 11 26 2 32 -8 5 -3 8 11 8 13 0 33 11 46 25 13 14 27 25 31
25 4 0 22 15 40 34 18 19 66 52 106 72 41 21 76 40 79 44 3 4 17 10 32 13 15
4 33 13 40 21 40 39 136 41 371 6 68 -10 79 -9 94 5 11 12 18 13 23 5 5 -8 11
-6 20 5 7 8 20 15 30 15 10 0 35 7 56 16 22 9 53 19 69 21 17 3 37 8 45 13 8
4 31 10 51 14 21 4 53 18 73 31 20 14 39 25 41 25 3 0 13 6 22 14 50 41 114
86 122 86 5 0 11 7 15 15 3 8 12 15 19 15 8 0 20 7 27 15 7 8 21 15 31 15 12
0 19 7 19 20 0 11 6 20 13 20 6 0 29 18 51 40 21 22 47 40 57 40 10 0 20 4 24
10 3 5 12 7 20 4 15 -6 75 25 75 38 0 4 11 8 25 8 14 0 25 -4 25 -10 0 -5 7
-10 15 -10 8 0 15 6 15 14 0 13 81 46 114 46 9 0 16 5 16 10 0 6 7 10 16 10
11 0 15 -6 12 -18z m2603 -262 c32 0 39 -4 39 -19 0 -11 -4 -21 -9 -23 -5 -1
-13 -51 -19 -111 -5 -59 -12 -110 -15 -114 -4 -3 -13 0 -22 7 -12 10 -15 10
-15 -4 0 -9 7 -16 15 -16 8 0 15 -3 15 -6 0 -7 -64 -66 -87 -80 -22 -13 -30
-64 -11 -75 9 -6 7 -9 -8 -9 -12 0 -28 -7 -35 -16 -11 -14 -10 -19 9 -34 13
-11 17 -20 11 -22 -9 -3 -8 -10 1 -25 11 -17 11 -26 -3 -56 -9 -19 -17 -44
-17 -55 0 -10 -11 -36 -25 -56 -14 -20 -25 -41 -25 -46 0 -4 -13 -11 -30 -15
-16 -4 -30 -13 -30 -21 0 -8 -3 -13 -7 -12 -15 3 -43 -14 -43 -27 0 -8 -15
-13 -42 -13 -24 0 -59 -3 -79 -7 -23 -4 -39 -3 -43 4 -4 6 -16 11 -27 11 -11
0 -35 14 -52 31 -26 27 -30 37 -28 76 1 25 8 52 16 59 7 8 16 27 20 44 4 16
11 30 16 30 5 0 9 4 9 9 0 5 12 23 28 39 67 74 105 107 146 126 22 10 36 24
36 35 0 10 7 32 15 47 l15 29 1 -40 c0 -22 3 -33 6 -25 3 8 22 30 41 49 29 29
33 38 24 52 -8 12 -8 20 -2 24 6 3 10 -1 10 -9 0 -9 5 -16 10 -16 6 0 10 18
10 40 0 22 5 40 10 40 6 0 15 20 22 45 10 36 16 44 30 39 15 -4 18 1 18 35 0
23 3 41 8 41 4 0 15 15 26 33 11 18 21 27 23 20 3 -8 22 -13 44 -13z m3148
-66 c16 -36 14 -75 -8 -116 -19 -38 -17 -52 8 -60 13 -4 13 -5 0 -10 -8 -3
-33 2 -55 13 -55 26 -77 24 -114 -11 -25 -23 -31 -35 -26 -54 12 -47 0 -56
-73 -53 -36 2 -81 10 -99 18 -29 12 -32 17 -26 44 3 17 11 36 17 43 15 18 63
42 70 35 4 -3 12 -1 19 4 7 6 31 13 53 16 22 3 48 7 58 9 18 4 57 71 57 99 0
27 65 62 96 52 6 -2 16 -15 23 -29z m409 -378 c2 -16 -2 -48 -8 -70 -9 -34 -9
-47 4 -71 16 -31 22 -100 8 -91 -11 6 -84 -27 -98 -45 -28 -35 -25 -55 16
-105 45 -55 44 -52 28 -91 -6 -15 -11 -31 -10 -35 3 -13 -11 -9 -55 12 -47 22
-83 87 -86 153 -2 40 -3 41 -61 64 -32 12 -71 35 -87 50 -27 26 -28 33 -29
111 l0 83 43 19 c26 12 65 20 102 20 33 0 83 7 110 15 28 7 66 13 85 12 31 -2
35 -6 38 -31z m-934 -41 c20 -20 11 -40 -33 -81 -34 -31 -199 -123 -231 -127
-8 -2 -22 -7 -30 -12 -23 -14 -49 -13 -63 4 -9 12 -9 13 1 7 8 -5 16 2 22 20
11 28 54 74 69 74 5 0 11 7 15 15 3 8 17 20 31 25 14 5 25 14 25 19 0 15 54
41 83 41 14 0 30 7 37 15 16 19 54 19 74 0z m-7973 -62 c16 -3 29 -11 29 -18
0 -6 18 -18 40 -25 22 -7 40 -18 40 -24 0 -7 17 -29 37 -50 36 -37 53 -60 72
-101 11 -25 39 -50 47 -42 11 10 65 -15 60 -28 -5 -15 23 -25 72 -25 32 0 43
13 20 24 -7 3 12 2 42 -1 30 -3 56 -6 56 -7 1 0 4 -26 5 -56 l4 -55 -44 4
c-28 2 -47 -2 -53 -11 -7 -10 -11 -10 -15 0 -6 14 -43 16 -43 2 0 -5 -8 -10
-19 -10 -25 0 -47 -26 -29 -34 7 -3 3 -3 -8 -1 -14 4 -24 0 -28 -10 -3 -9 -10
-14 -15 -10 -5 3 -12 1 -16 -5 -3 -5 -14 -10 -23 -10 -9 0 -30 -12 -45 -27
-16 -16 -43 -43 -62 -61 -32 -32 -140 -82 -177 -82 -9 0 -25 -11 -34 -25 -13
-20 -19 -23 -30 -14 -10 8 -14 8 -14 1 0 -6 -17 -16 -38 -22 -20 -7 -45 -18
-56 -25 -17 -13 -17 -16 -3 -42 9 -15 23 -45 32 -65 16 -35 16 -37 -3 -56 -13
-13 -41 -22 -88 -27 -38 -5 -73 -9 -79 -10 -5 0 -21 -6 -35 -12 -14 -6 -69
-16 -124 -22 -54 -6 -107 -16 -117 -22 -11 -5 -23 -8 -28 -5 -12 8 -125 -12
-152 -27 -45 -23 -80 -65 -100 -119 -39 -101 -69 -209 -69 -245 0 -9 -11 -31
-25 -49 -14 -18 -25 -38 -25 -45 0 -20 -42 -59 -63 -59 -32 0 -97 34 -92 48 2
6 -1 12 -7 12 -8 0 -9 35 -4 124 6 129 -1 176 -29 176 -8 0 -15 5 -15 10 0 6
-18 10 -40 10 -29 0 -40 -4 -40 -15 0 -8 -6 -12 -14 -9 -13 5 -66 -19 -151
-71 -22 -13 -51 -30 -65 -36 -14 -7 -32 -18 -40 -24 -8 -7 -40 -25 -70 -41
-30 -16 -56 -32 -58 -36 -2 -5 -11 -8 -19 -8 -17 0 -136 -61 -141 -72 -2 -5
-10 -8 -18 -8 -8 0 -14 -4 -14 -10 0 -5 -8 -10 -17 -10 -10 0 -27 -7 -37 -15
-11 -8 -28 -15 -37 -15 -10 0 -22 -6 -26 -13 -4 -7 -27 -21 -50 -31 -24 -11
-43 -22 -43 -25 0 -3 -21 -17 -47 -30 -27 -14 -62 -35 -80 -48 -17 -13 -37
-23 -43 -23 -6 0 -33 -15 -61 -34 -27 -19 -58 -38 -69 -41 -11 -4 -20 -11 -20
-16 0 -5 -4 -9 -9 -9 -13 0 -72 -28 -106 -50 -16 -11 -54 -31 -84 -45 -29 -14
-60 -32 -68 -40 -8 -8 -23 -15 -33 -15 -10 0 -20 -6 -23 -13 -2 -7 -26 -23
-53 -36 -27 -14 -76 -42 -108 -63 -33 -21 -64 -38 -69 -38 -5 0 -29 -13 -54
-30 -24 -16 -46 -30 -49 -30 -3 0 -51 -35 -107 -78 -121 -92 -160 -117 -247
-160 -36 -18 -77 -43 -92 -57 -15 -14 -32 -25 -38 -25 -14 0 -52 -22 -65 -37
-10 -13 -93 -58 -235 -130 -41 -21 -81 -44 -88 -50 -7 -7 -17 -13 -22 -13 -18
0 -50 -44 -50 -69 0 -18 15 -40 49 -71 97 -90 114 -101 169 -111 71 -14 82 -4
82 72 0 69 21 199 32 199 4 0 14 14 23 30 9 17 22 30 30 30 8 0 15 7 15 15 0
8 9 15 20 15 11 0 20 4 20 9 0 14 66 50 134 73 34 12 63 24 66 28 3 4 22 15
43 23 20 9 37 20 37 25 0 6 18 12 40 14 22 2 40 0 40 -4 0 -5 14 -8 30 -8 17
0 30 -4 30 -10 0 -5 11 -12 24 -16 14 -3 27 -12 30 -20 3 -8 12 -14 20 -14 9
0 23 -11 32 -26 10 -14 23 -23 31 -20 8 3 19 -7 27 -27 8 -18 15 -26 15 -19 1
21 21 3 21 -19 0 -10 4 -19 10 -19 11 0 61 -103 84 -174 19 -59 13 -69 -52
-86 -26 -7 -51 -17 -56 -21 -6 -5 -19 -9 -31 -9 -11 0 -31 -14 -45 -31 -14
-17 -30 -36 -36 -43 -6 -6 -19 -30 -29 -53 -10 -23 -22 -40 -26 -38 -4 3 -23
-11 -42 -30 -19 -19 -41 -35 -48 -35 -11 0 -11 -2 -2 -8 8 -5 -1 -8 -23 -9
-19 -1 -37 -3 -39 -5 -6 -6 -6 -88 1 -143 l5 -50 -40 -12 c-22 -7 -47 -13 -55
-13 -9 0 -26 -11 -39 -25 -16 -18 -37 -27 -73 -31 -53 -7 -78 4 -163 71 -21
17 -51 39 -67 50 -15 11 -67 53 -115 93 -68 56 -94 72 -119 72 -25 0 -30 -3
-26 -17 3 -10 10 -37 16 -60 6 -23 15 -45 20 -48 6 -3 10 -15 10 -26 0 -10 4
-19 9 -19 11 0 111 -194 111 -215 0 -7 4 -15 8 -17 9 -4 67 -142 89 -213 8
-27 20 -58 25 -69 5 -10 11 -26 12 -35 2 -9 6 -32 10 -52 6 -35 5 -36 -19 -31
-16 3 -25 11 -25 23 0 11 -9 28 -20 39 -11 11 -20 24 -20 29 0 4 -15 28 -34
52 -18 25 -42 60 -52 79 -11 19 -28 49 -40 65 -17 25 -89 167 -159 318 -9 20
-21 37 -26 37 -5 0 -9 6 -9 14 0 8 -3 16 -7 18 -5 2 -16 17 -26 33 -16 27 -26
47 -59 121 -19 40 -53 75 -68 69 -19 -7 -36 -66 -45 -150 -4 -33 -15 -103 -25
-155 -10 -52 -21 -122 -25 -155 -3 -33 -10 -73 -15 -90 -13 -44 -38 -163 -46
-215 -3 -25 -9 -54 -11 -65 -36 -152 -72 -355 -78 -440 -4 -49 -9 -103 -11
-120 -9 -59 -34 -221 -40 -262 -16 -106 23 -160 149 -203 45 -16 129 -53 187
-83 58 -30 141 -64 185 -76 44 -12 100 -28 125 -36 25 -7 74 -19 110 -26 36
-6 69 -16 74 -20 6 -5 24 -9 41 -9 17 0 65 -11 108 -25 43 -14 97 -28 120 -31
23 -3 53 -9 67 -14 41 -16 169 -40 207 -40 39 0 75 24 67 45 -3 7 -1 16 5 20
14 8 14 55 1 55 -5 0 -10 5 -10 10 0 19 17 10 63 -35 26 -25 52 -45 58 -45 5
0 8 -4 5 -9 -3 -5 1 -12 10 -15 25 -9 64 -7 64 4 0 6 7 10 15 10 8 0 15 5 15
10 0 6 7 10 16 10 9 0 18 9 21 20 9 32 24 23 21 -13 -2 -39 7 -57 30 -57 24 0
167 85 223 132 25 21 49 38 53 38 5 0 21 11 38 25 16 14 38 25 49 25 10 0 19
7 19 15 0 8 11 17 25 21 14 3 25 10 25 16 0 5 4 7 8 4 5 -3 16 4 25 15 9 10
26 19 37 19 11 0 20 4 20 9 0 5 11 11 25 13 36 7 31 -6 -16 -44 -160 -130
-130 -107 -239 -180 -176 -118 -234 -174 -212 -201 7 -8 35 -19 64 -25 115
-25 314 -65 362 -72 28 -5 101 -18 161 -30 173 -35 186 -37 250 -50 33 -6 78
-16 100 -21 22 -6 63 -14 90 -19 96 -17 347 -70 355 -75 5 -3 73 -16 152 -30
79 -13 157 -27 174 -31 27 -5 32 -2 43 23 10 24 8 38 -9 87 -11 33 -20 74 -20
93 0 18 -4 33 -10 33 -5 0 -10 9 -10 20 0 10 -6 23 -13 27 -7 4 -17 27 -23 50
-9 34 -8 47 3 63 13 19 40 19 28 0 -3 -4 9 -23 26 -41 17 -18 41 -54 55 -80
21 -43 85 -106 124 -122 23 -10 51 -30 79 -54 22 -20 46 -28 111 -36 8 -1 15
-9 15 -17 0 -8 3 -20 7 -25 3 -6 12 -38 19 -72 10 -49 10 -73 1 -110 -20 -79
-24 -136 -11 -144 9 -5 8 -11 -4 -23 -13 -14 -24 -14 -69 -5 -74 15 -127 48
-190 119 l-55 60 -84 11 c-46 6 -104 17 -129 24 -25 8 -76 17 -115 21 -38 3
-77 10 -85 14 -8 4 -37 11 -65 14 -27 4 -68 12 -89 17 -22 6 -55 12 -75 15
-60 6 -142 21 -235 43 -50 12 -107 21 -127 21 -21 0 -40 4 -44 9 -3 5 -31 13
-63 16 -31 4 -86 13 -122 21 -36 9 -92 19 -125 24 -66 9 -200 36 -255 50 -64
17 -125 20 -180 10 -30 -6 -72 -13 -94 -17 -46 -7 -88 -44 -92 -79 -1 -13 6
-50 17 -81 10 -31 19 -76 19 -100 0 -23 5 -43 10 -43 6 0 10 -15 10 -34 0 -18
7 -50 15 -69 8 -20 15 -50 15 -66 0 -16 18 -84 41 -151 27 -82 39 -132 35
-151 -7 -39 3 -89 19 -89 13 0 28 -43 30 -85 4 -59 2 -57 57 -53 35 2 53 -1
55 -9 3 -7 -2 -13 -11 -13 -9 0 -16 -4 -16 -10 0 -5 9 -10 20 -10 11 0 20 5
20 10 0 6 9 10 20 10 17 0 20 -7 20 -40 0 -22 5 -40 11 -40 5 0 7 -5 3 -11 -5
-8 -8 -8 -14 0 -7 13 -82 -95 -100 -145 -6 -16 -16 -39 -22 -52 -10 -19 -9
-25 2 -33 13 -8 13 -10 1 -18 -11 -7 -10 -13 5 -35 11 -14 22 -26 27 -26 4 0
7 -6 7 -14 0 -8 15 -17 35 -20 37 -7 42 -15 23 -34 -9 -9 -8 -12 5 -12 10 0
17 8 17 20 0 11 7 20 15 20 18 0 19 -12 3 -28 -9 -9 -6 -12 15 -12 27 0 30 -6
39 -65 2 -11 12 -21 23 -23 11 -1 31 -5 45 -8 l25 -6 -24 -17 c-21 -16 -22
-19 -6 -24 9 -4 21 -5 25 -2 9 5 14 -7 25 -62 5 -26 11 -33 31 -33 13 0 24 -4
24 -10 0 -5 -6 -10 -14 -10 -24 0 -30 -21 -8 -27 12 -3 22 -15 24 -27 2 -15
11 -22 31 -24 33 -4 26 -22 -9 -22 -13 0 -24 -4 -24 -8 0 -10 90 -32 131 -32
24 0 29 4 29 25 0 23 4 25 40 25 22 0 40 4 40 9 0 5 10 11 22 13 17 2 25 14
34 43 11 39 10 40 -15 45 l-26 6 30 28 c19 19 26 30 18 33 -7 3 -13 14 -13 26
0 21 0 21 17 -2 9 -14 16 -43 16 -70 0 -27 3 -37 7 -26 6 16 9 14 24 -16 9
-19 29 -63 43 -99 14 -36 32 -72 39 -81 8 -8 14 -22 14 -30 0 -8 9 -25 20 -39
11 -14 20 -33 20 -42 0 -10 9 -23 20 -30 11 -7 20 -23 20 -35 0 -12 4 -25 10
-28 5 -3 15 -16 22 -28 10 -20 9 -21 -4 -9 -14 11 -21 9 -46 -15 -16 -15 -47
-43 -68 -62 -22 -18 -60 -53 -86 -77 -26 -24 -49 -44 -52 -44 -3 0 -17 -11
-32 -25 -15 -14 -32 -25 -38 -25 -15 -1 -56 -36 -56 -49 0 -5 -6 -14 -14 -18
-19 -11 -78 -90 -95 -128 -7 -16 -19 -43 -27 -58 -8 -16 -14 -33 -14 -37 0 -5
-11 -26 -25 -46 -14 -21 -28 -49 -32 -63 -3 -14 -9 -28 -12 -31 -3 -3 -25 -45
-49 -95 -24 -49 -60 -124 -80 -165 -42 -84 -21 -77 -167 -63 -105 9 -154 5
-198 -16 -69 -34 -139 -93 -179 -151 -21 -30 -41 -59 -45 -65 -5 -5 -10 -44
-11 -85 -3 -57 2 -94 18 -150 13 -41 26 -79 30 -84 5 -4 6 -24 3 -42 -4 -21 2
-55 15 -91 28 -79 34 -111 22 -118 -5 -3 -10 -1 -10 5 0 6 -4 9 -8 6 -10 -6
-122 70 -209 144 -7 5 -21 10 -31 10 -11 0 -33 7 -48 15 l-29 15 29 0 c21 0
27 4 22 15 -8 22 4 45 30 55 18 7 24 19 29 63 4 30 4 64 1 74 -4 12 1 28 14
43 12 13 18 31 15 41 -4 12 1 19 15 24 21 7 27 30 9 40 -13 9 -3 61 19 95 15
23 16 23 23 5 5 -13 8 1 9 40 0 36 7 68 15 79 19 25 19 36 1 36 -18 0 -23 42
-22 172 1 89 4 110 20 127 19 21 19 21 -8 21 l-28 0 26 31 c14 17 26 38 26 47
0 29 24 82 37 82 8 0 13 14 13 39 0 33 4 40 22 43 25 4 55 74 35 81 -9 3 -7
14 6 37 9 17 15 36 11 41 -11 18 -12 154 -2 160 8 5 7 42 -2 120 -7 63 -12
121 -11 129 1 8 1 60 1 115 -1 55 4 156 10 225 9 91 9 125 1 128 -16 5 -14 20
9 52 l19 27 -23 49 c-13 27 -29 64 -36 82 -7 17 -19 32 -26 32 -9 0 -14 11
-14 29 0 21 -6 31 -22 36 l-23 8 22 4 c23 5 25 12 43 198 5 55 12 105 14 112
3 6 0 13 -6 15 -7 3 -7 35 -1 102 8 91 9 739 1 778 -2 9 -26 34 -54 55 -27 20
-52 42 -56 47 -25 39 -41 47 -153 72 -66 15 -135 28 -153 31 -32 3 -77 38 -77
58 0 6 -18 11 -40 13 -22 2 -44 8 -49 13 -6 5 -23 9 -39 9 -15 0 -49 10 -75
21 -26 12 -87 30 -137 40 -49 11 -99 23 -110 28 -11 5 -40 14 -65 19 -72 17
-79 19 -190 51 -57 16 -108 27 -113 24 -4 -2 -13 -1 -20 4 -7 6 -39 15 -72 22
-33 6 -79 16 -103 21 -53 12 -117 13 -140 1 -121 -62 -202 -76 -263 -47 -43
20 -59 51 -59 109 1 57 18 100 69 177 54 80 66 113 97 268 27 131 29 146 44
262 5 41 14 100 20 130 6 30 15 78 20 105 7 42 48 232 65 300 3 11 10 44 17
73 6 29 15 55 20 58 4 3 8 17 8 31 0 13 6 37 14 51 7 15 21 52 31 82 9 30 26
75 37 100 47 103 67 247 37 266 -4 2 -16 -8 -26 -23 -26 -39 -98 -104 -146
-132 -23 -13 -58 -35 -77 -50 -19 -15 -47 -33 -62 -40 -16 -8 -28 -19 -28 -24
0 -10 -101 -107 -112 -107 -11 0 3 61 21 93 8 15 21 27 28 27 7 0 13 9 13 21
0 11 4 18 9 15 5 -3 18 10 30 29 11 20 27 38 36 41 8 4 15 15 15 25 0 10 4 19
9 19 4 0 19 20 32 45 13 25 27 45 31 45 5 0 8 9 8 19 0 11 4 22 9 25 5 4 26
36 46 71 20 36 63 94 96 129 40 43 59 72 59 89 0 14 7 32 15 41 8 8 15 22 15
31 0 9 4 14 9 11 5 -3 19 11 31 32 20 32 22 47 17 110 -6 77 -12 96 -26 73 -5
-8 -14 -10 -21 -6 -9 6 -9 9 0 15 9 5 10 20 6 44 -6 30 -11 36 -31 36 -16 0
-25 -6 -25 -15 0 -8 -9 -15 -20 -15 -11 0 -20 7 -20 15 0 8 7 15 15 15 11 0
15 11 15 36 0 42 15 74 35 74 8 0 15 9 15 19 0 11 2 25 3 33 2 7 2 10 0 6 -6
-11 -33 -10 -33 0 0 4 11 23 25 42 15 20 25 47 25 67 0 43 -22 123 -33 123 -5
0 -6 8 -3 17 11 29 20 172 18 312 -1 119 -4 140 -24 180 -13 25 -26 48 -30 51
-11 8 -19 106 -25 300 -9 263 -9 293 1 315 5 11 10 25 11 30 5 34 46 95 63 95
6 0 15 6 19 13 13 21 100 41 184 41 43 1 81 4 85 9 11 11 26 9 19 -3 -3 -5 -1
-10 4 -10 6 0 11 7 11 16 0 8 5 12 10 9 6 -4 8 -10 5 -15 -3 -4 2 -11 11 -14
10 -4 15 -16 13 -33 -5 -60 22 -140 42 -127 5 3 18 0 30 -7 18 -9 174 -30 217
-29 16 1 49 1 65 0 6 0 127 1 267 4 253 4 255 4 301 30 25 14 54 35 64 46 10
11 24 20 32 20 7 0 16 7 19 15 12 29 19 14 16 -29 -3 -30 1 -53 12 -68 9 -12
16 -31 16 -40 0 -13 10 -20 30 -24 39 -8 39 -24 1 -24 -17 0 -33 -4 -36 -10
-3 -5 -18 -10 -32 -10 -42 0 -110 -38 -163 -91 l-48 -48 5 52 c4 45 1 56 -17
72 -23 21 -33 22 -230 18 -187 -3 -190 -3 -190 18 0 23 -12 24 -70 2 -31 -12
-76 -17 -144 -18 -70 0 -101 -4 -103 -12 -3 -7 -13 -13 -24 -13 -15 0 -19 -8
-20 -37 -1 -21 0 -42 2 -48 1 -5 2 -20 2 -32 -1 -13 3 -23 8 -23 10 0 29 -34
35 -63 2 -12 11 -27 19 -33 8 -6 15 -21 15 -33 0 -11 4 -21 10 -21 12 0 84
-151 100 -210 7 -25 15 -49 20 -55 4 -5 11 -27 14 -49 8 -44 45 -86 76 -86 11
0 20 -4 20 -10 0 -20 78 38 157 118 46 47 83 78 83 70 0 -8 -4 -18 -9 -24 -5
-5 -30 -63 -56 -129 -50 -128 -63 -208 -44 -277 5 -21 10 -62 11 -92 1 -45 -4
-62 -28 -98 -56 -83 -114 -193 -114 -215 0 -23 26 -26 67 -8 60 27 117 57 134
71 8 8 19 14 23 14 4 0 22 10 38 22 44 31 139 78 158 78 9 0 20 4 26 8 5 5 35
19 68 32 32 13 81 36 110 51 28 16 71 39 96 52 73 38 110 61 110 70 0 4 9 7
19 7 11 0 22 4 25 9 3 5 29 20 58 35 29 14 80 42 113 61 33 19 68 38 78 41 9
4 17 10 17 14 0 5 33 25 73 46 39 20 89 48 109 61 21 12 42 23 48 23 6 0 37
18 69 40 32 22 63 40 69 40 6 0 12 4 14 9 2 5 41 28 88 51 47 24 111 60 143
81 32 22 61 39 64 39 3 0 22 14 43 30 21 17 42 30 46 30 5 0 27 14 48 30 22
17 45 30 52 30 6 0 18 7 25 17 8 9 30 23 49 31 19 8 46 22 60 32 54 38 100 60
101 47 0 -6 4 -3 8 8 4 11 20 26 36 35 24 13 28 22 32 72 4 49 2 58 -16 68
-27 14 -28 50 -1 50 11 0 20 5 20 10 0 6 15 10 34 10 19 0 37 4 40 9 3 5 25
12 49 15 101 15 161 109 178 280 12 119 58 281 81 281 7 0 17 6 21 13 4 6 12
12 17 12 13 0 52 -120 57 -177 3 -29 9 -53 14 -53 5 0 9 -25 9 -56 0 -39 6
-67 19 -88 26 -41 78 -79 101 -73 11 3 20 -1 22 -8 4 -16 160 34 186 59 9 9
29 25 43 36 39 29 73 141 64 212 -11 89 31 247 70 262 8 3 15 17 15 31 0 14 6
25 13 25 8 0 24 11 37 25 13 14 29 25 37 25 7 0 13 7 13 15 0 8 9 15 19 15 11
0 36 10 57 22 45 26 131 48 163 42 13 -3 36 -8 52 -11z m-3707 -271 c2 -4 -1
-29 -7 -55 -7 -34 -15 -47 -28 -47 -9 0 -19 -7 -23 -15 -3 -8 -15 -15 -26 -15
-15 0 -20 -7 -20 -28 0 -21 -7 -32 -25 -40 -14 -7 -30 -23 -37 -37 -6 -14 -17
-25 -25 -25 -7 0 -13 -7 -13 -15 0 -21 -19 -19 -27 3 -6 13 -10 8 -19 -23 -12
-40 -12 -40 -13 -8 -1 40 47 136 66 129 8 -3 13 2 13 14 0 14 7 20 21 20 12 0
23 8 26 20 4 14 14 20 34 20 21 0 29 5 29 18 0 9 11 29 25 44 14 15 25 32 25
38 0 12 17 14 24 2z m10974 -290 c2 -32 -1 -52 -7 -52 -6 0 -11 -7 -11 -15 0
-8 -7 -15 -15 -15 -9 0 -18 -12 -21 -30 -4 -16 -11 -30 -16 -30 -18 0 -98 -93
-120 -139 -40 -82 -46 -85 -153 -74 -79 9 -100 15 -139 41 -26 18 -68 41 -94
53 -58 27 -62 32 -50 79 8 32 23 47 88 94 43 31 81 56 84 56 3 0 27 15 53 33
45 30 54 32 143 34 52 0 106 6 120 12 14 6 50 9 80 8 l55 -3 3 -52z m3387 38
c71 -27 121 -101 111 -164 -7 -42 -41 -106 -57 -106 -5 0 -9 -6 -9 -14 0 -7
-8 -17 -17 -20 -10 -4 -30 -13 -44 -21 -51 -29 -147 -19 -206 21 -20 13 -68
56 -107 94 -38 39 -74 70 -80 70 -22 0 -133 63 -145 82 -24 38 13 45 147 28
72 -9 89 -8 187 20 106 30 161 33 220 10z m-23920 -67 c17 -3 35 -10 40 -17 6
-6 27 -22 48 -35 68 -41 95 -117 88 -246 -2 -41 -60 -152 -88 -171 -13 -8 -23
-21 -23 -29 0 -9 -10 -15 -25 -15 -15 0 -25 -6 -25 -14 0 -21 -54 -36 -130
-36 -66 0 -67 0 -113 47 -27 26 -51 62 -57 82 -14 50 -12 168 3 216 18 60 85
153 131 183 73 47 81 51 101 45 11 -3 34 -7 50 -10z m22150 -11 c28 -23 57
-87 62 -137 4 -32 1 -44 -16 -59 -12 -11 -21 -15 -21 -10 0 5 -5 2 -10 -6 -9
-13 -12 -13 -21 3 -5 9 -16 17 -23 17 -18 0 -56 81 -56 121 0 35 34 89 54 89
6 -1 20 -8 31 -18z m-7961 -221 c8 -12 -18 -21 -60 -21 -20 0 -33 -4 -30 -9
10 -15 -134 -31 -199 -22 -65 9 -75 7 -75 -15 0 -8 -9 -14 -22 -14 -12 0 -18
3 -15 7 12 12 -25 43 -52 43 -22 1 -20 3 14 15 36 13 41 13 53 -2 11 -16 13
-16 25 -1 6 9 26 19 42 21 60 8 314 7 319 -2z m3131 -831 c-3 -4 7 -15 21 -25
19 -12 23 -20 15 -28 -6 -6 -11 -24 -11 -39 0 -27 -33 -72 -44 -60 -3 3 -6 -2
-6 -11 0 -9 -10 -33 -22 -54 -36 -63 -48 -88 -48 -96 0 -13 -83 -121 -110
-142 -14 -11 -33 -28 -42 -37 -10 -10 -18 -16 -18 -13 0 2 -16 -6 -35 -20 -57
-38 -100 -48 -192 -43 l-84 4 -59 62 c-69 73 -90 126 -90 224 0 38 -4 78 -10
88 -13 24 11 50 46 50 17 0 24 6 24 19 0 16 6 17 49 13 26 -2 57 1 68 6 11 6
49 16 84 22 35 7 86 16 112 20 27 5 54 13 60 18 7 5 33 13 60 16 26 4 47 11
47 16 0 4 19 10 43 13 23 3 60 10 82 14 39 9 71 0 60 -17z m2432 -777 c4 -9 2
-18 -3 -20 -21 -7 1 -316 26 -362 7 -15 10 -39 6 -63 -4 -22 -2 -54 3 -72 6
-17 20 -75 32 -128 34 -156 13 -207 -104 -248 -124 -44 -258 -14 -313 69 -25
39 -26 45 -21 126 7 90 17 117 65 177 16 21 34 50 39 65 21 57 33 100 33 113
0 16 46 138 61 160 5 8 16 30 24 48 9 17 20 32 26 32 6 0 9 7 6 15 -4 8 5 22
21 34 21 16 24 23 13 30 -9 6 -10 11 -2 15 6 4 11 2 11 -3 0 -19 17 -12 23 9
6 25 45 27 54 3z m-20575 -30 c8 -16 21 -27 31 -27 11 1 17 -5 17 -18 0 -11 7
-26 15 -34 24 -24 38 -94 31 -154 -4 -30 -7 -63 -8 -72 -1 -9 -6 -15 -9 -12
-11 7 -24 -18 -24 -46 0 -14 -5 -24 -12 -23 -7 2 -15 -16 -19 -42 -3 -25 -10
-45 -15 -45 -5 0 -9 -6 -9 -14 0 -8 -10 -22 -21 -30 -12 -8 -30 -28 -40 -45
-11 -18 -27 -31 -39 -31 -14 0 -20 -7 -20 -21 0 -18 -2 -19 -15 -9 -12 10 -18
8 -35 -11 -15 -18 -22 -21 -28 -11 -7 10 -12 10 -22 -3 -13 -16 -15 -15 -27 1
-10 13 -25 18 -56 16 -39 -1 -43 1 -43 21 1 15 -5 22 -19 22 -16 0 -23 13 -37
60 -9 33 -17 78 -17 101 -1 22 -8 55 -16 72 -15 29 -14 34 9 93 14 34 37 77
51 95 14 18 29 50 33 71 6 30 13 39 32 42 14 1 27 6 30 11 3 4 20 15 38 24 17
9 32 21 32 27 0 6 14 8 33 5 25 -4 101 2 159 13 4 0 13 -11 20 -26z m-1254
-432 c20 -10 49 -30 63 -43 68 -63 65 -197 -7 -284 -29 -36 -43 -44 -103 -59
-59 -14 -78 -15 -126 -5 -58 12 -115 54 -115 85 0 7 -4 17 -10 20 -5 3 -10 27
-10 53 0 46 28 116 74 185 43 63 158 87 234 48z m13209 -692 c1 -12 6 -26 11
-31 12 -12 -4 -133 -22 -160 -15 -24 -20 -58 -18 -116 2 -25 8 -35 22 -39 10
-3 22 -14 25 -24 4 -10 14 -19 24 -19 9 0 36 -9 59 -20 22 -11 46 -20 51 -20
6 0 15 -9 21 -20 6 -11 17 -20 24 -20 8 0 19 -7 26 -15 7 -8 17 -12 22 -9 5 4
27 -12 47 -35 20 -22 42 -41 49 -41 6 0 28 -9 48 -21 32 -18 43 -19 78 -10 67
17 176 24 176 12 0 -6 5 -11 10 -11 23 0 58 -54 90 -138 17 -44 7 -161 -21
-232 -38 -100 -83 -130 -209 -136 -61 -4 -105 0 -155 13 -80 21 -95 38 -95
116 0 38 -7 59 -37 106 -21 31 -49 79 -63 106 -27 52 -148 180 -181 190 -10 4
-19 11 -19 16 0 5 -9 9 -19 9 -10 0 -21 7 -25 15 -6 17 -72 21 -78 5 -2 -6
-27 -21 -56 -35 -50 -23 -52 -23 -62 -5 -13 24 -13 217 0 225 6 3 10 15 10 25
0 10 6 23 13 27 19 13 61 83 82 138 10 28 30 62 44 77 38 40 51 56 51 67 0 9
42 28 65 30 6 1 11 -9 12 -20z m-8417 -300 c0 -8 4 -8 13 -1 13 11 53 6 73 -9
6 -5 14 -6 17 -3 4 4 36 -8 72 -26 44 -22 65 -38 65 -51 0 -10 9 -24 20 -32
23 -16 39 -100 21 -111 -6 -4 -11 -17 -12 -29 0 -21 -1 -21 -8 -2 -7 17 -10
14 -21 -22 -10 -32 -18 -43 -33 -43 -13 0 -17 -5 -14 -15 4 -8 2 -17 -3 -20
-6 -4 -10 0 -10 7 -1 16 -39 -32 -40 -49 0 -7 -5 -13 -11 -13 -6 0 -9 6 -6 14
3 8 -1 17 -9 20 -8 3 -14 0 -14 -8 0 -9 -23 -15 -77 -20 -43 -4 -86 -6 -95 -6
-64 3 -85 6 -96 17 -7 7 -25 13 -39 13 -17 0 -23 4 -20 13 3 7 -4 19 -14 25
-12 8 -19 22 -18 40 1 15 -2 35 -6 45 -4 9 -3 17 2 17 6 0 16 26 23 57 12 54
36 102 52 103 4 0 24 16 45 35 21 19 44 35 51 35 6 0 12 5 12 10 0 6 11 8 25
4 15 -4 25 -2 25 5 0 6 7 11 15 11 8 0 15 -5 15 -11z m20340 -61 c0 -15 5 -30
10 -33 6 -3 10 -13 10 -22 0 -9 17 -39 38 -67 115 -152 112 -219 -14 -314 -24
-17 -47 -32 -52 -32 -5 0 -19 -11 -32 -25 -39 -42 -33 -93 21 -183 l19 -34
-32 -59 c-53 -96 -106 -109 -225 -54 -64 29 -97 62 -132 132 -14 26 -30 55
-36 63 -18 24 -16 60 3 60 23 0 59 40 77 84 9 20 20 36 27 36 6 0 9 3 5 6 -3
3 5 18 19 32 30 33 30 40 -1 108 -17 36 -25 72 -25 108 0 60 8 70 84 107 27
13 54 32 60 42 6 9 15 17 21 17 5 0 26 17 46 38 56 58 71 64 91 39 10 -12 18
-34 18 -49z m-12213 -368 c13 -38 13 -47 -1 -85 -13 -33 -25 -46 -56 -60 -22
-10 -38 -21 -36 -24 7 -11 -21 -142 -33 -154 -6 -6 -11 -17 -11 -25 0 -17 -76
-125 -125 -179 l-33 -36 3 39 c11 128 47 214 141 337 35 46 36 50 29 106 -5
44 -3 66 9 89 18 35 30 41 70 38 24 -3 31 -10 43 -46z m215 -227 c43 -26 78
-52 78 -58 0 -17 82 -65 111 -65 15 0 34 -7 43 -15 8 -8 21 -15 29 -15 23 0
49 -65 41 -105 -8 -47 -22 -55 -82 -51 -64 3 -91 26 -128 106 -15 32 -36 63
-48 68 -54 26 -152 123 -159 158 -7 37 26 31 115 -23z m-1133 -68 c44 -35 100
-111 127 -175 19 -44 31 -210 16 -210 -7 0 -18 14 -27 30 -9 17 -20 30 -27 30
-15 0 -90 83 -109 122 -37 75 -53 114 -51 133 2 47 14 105 20 105 4 0 27 -16
51 -35z m-2666 -77 c22 -11 27 -19 26 -48 -2 -55 -13 -85 -32 -82 -10 2 -17
-4 -17 -13 0 -9 -13 -29 -30 -45 -16 -16 -30 -36 -30 -45 0 -8 -4 -15 -10 -15
-5 0 -10 -7 -10 -15 0 -8 -4 -15 -8 -15 -18 0 -32 -54 -32 -123 0 -115 -8
-143 -46 -169 -19 -13 -32 -28 -30 -34 3 -7 -9 -25 -25 -40 -17 -16 -46 -54
-64 -84 -38 -63 -124 -149 -174 -173 -19 -9 -49 -17 -67 -17 -21 0 -37 -6 -43
-17 -9 -17 -13 -17 -68 1 -71 24 -126 79 -142 142 -13 52 -14 151 -2 158 5 3
12 22 15 41 4 20 14 39 22 42 7 3 14 10 14 17 0 12 68 87 113 123 25 21 63 41
145 74 17 8 32 17 32 22 0 4 6 7 13 6 20 -3 50 13 80 44 15 16 27 32 27 35 0
14 126 122 143 122 9 0 17 3 17 8 0 4 14 13 30 20 17 8 30 20 30 28 0 8 5 14
11 14 6 0 24 11 41 25 34 29 35 29 71 13z m4305 -2066 c15 -10 35 -44 107
-184 30 -58 59 -109 65 -113 16 -10 -7 -45 -29 -45 -19 0 -60 55 -112 148 -13
24 -25 38 -27 32 -2 -6 0 -16 6 -23 5 -7 12 -25 16 -42 4 -16 11 -32 16 -35 5
-3 -7 -16 -26 -30 -25 -16 -38 -20 -43 -12 -4 6 -20 10 -36 9 -29 -2 -30 -1
-29 46 0 28 6 52 13 56 7 5 12 10 10 12 -1 2 1 14 5 27 7 20 17 26 38 23 11
-1 -3 61 -20 86 -25 39 6 70 46 45z m556 -98 c12 -16 22 -40 23 -54 1 -14 4
-53 7 -86 6 -56 4 -62 -14 -67 -13 -3 -18 -10 -14 -21 4 -12 0 -16 -15 -16
-12 0 -21 -4 -21 -10 0 -9 -68 -46 -73 -39 -2 2 -22 36 -45 76 -39 67 -42 75
-37 130 5 51 9 62 40 89 30 26 42 31 81 29 39 -1 50 -7 68 -31z m370 -146 c-4
-14 -1 -16 13 -12 14 5 15 4 4 -4 -13 -9 -12 -19 4 -69 40 -129 45 -148 45
-173 0 -16 -13 -41 -33 -64 -30 -33 -38 -37 -73 -34 -34 3 -42 8 -62 46 -13
23 -30 42 -38 42 -8 0 -14 6 -14 14 0 8 -6 17 -12 20 -10 5 -10 7 0 12 6 3 12
13 12 23 0 10 16 36 36 59 19 23 32 42 27 43 -4 0 2 4 15 9 12 5 22 18 22 29
0 11 7 26 15 35 8 8 15 23 15 34 0 10 3 22 7 25 10 11 23 -16 17 -35z m-6179
-1238 c6 -4 21 -11 35 -15 28 -9 70 -52 71 -75 0 -10 2 -11 6 -2 2 6 9 12 14
12 12 0 12 -47 -1 -55 -5 -3 -10 2 -10 12 0 15 -2 15 -9 3 -6 -8 -7 -18 -5
-22 9 -14 -19 -78 -34 -78 -7 0 -10 -4 -7 -10 3 -5 -5 -21 -18 -34 -14 -14
-22 -27 -19 -30 3 -3 -2 -6 -12 -6 -11 0 -16 -7 -14 -17 2 -14 -3 -17 -27 -15
-16 1 -47 3 -67 4 -21 2 -38 6 -38 10 0 5 -9 3 -20 -4 -24 -16 -57 1 -52 26 2
9 -4 16 -12 16 -23 0 -31 22 -13 35 19 14 23 65 7 81 -23 23 46 125 104 155
33 17 104 22 121 9z m5611 -239 c13 -24 28 -49 34 -55 5 -5 10 -16 10 -23 0
-8 9 -33 20 -55 11 -23 20 -49 20 -57 0 -9 16 -47 35 -86 19 -38 35 -78 35
-88 0 -10 9 -27 20 -39 22 -24 26 -58 8 -76 -9 -9 -9 -12 0 -12 7 0 12 -7 12
-15 0 -8 5 -15 10 -15 6 0 10 -5 10 -11 0 -6 9 -24 20 -39 11 -16 23 -42 26
-59 4 -17 13 -36 20 -42 9 -7 14 -31 14 -63 0 -28 5 -69 10 -91 20 -76 44
-145 52 -145 4 0 8 -6 8 -13 0 -7 17 -48 38 -90 22 -43 39 -91 40 -109 0 -17
7 -35 14 -40 8 -6 0 -7 -22 -3 -19 4 -38 10 -41 14 -4 3 -18 40 -33 81 -15 41
-45 120 -66 175 -21 55 -59 154 -84 220 -26 66 -51 129 -57 141 -8 15 -7 32 1
61 11 35 10 44 -9 82 -12 23 -28 44 -36 47 -8 3 -19 22 -26 42 -6 21 -15 41
-20 47 -5 5 -9 15 -9 22 0 7 -11 36 -24 65 -40 91 -46 108 -46 139 0 17 -4 28
-9 24 -6 -3 -13 10 -17 30 -3 19 -10 38 -15 41 -5 3 -9 14 -9 25 0 37 40 18
66 -30z m-696 -51 c-13 -8 -13 -10 2 -10 33 0 27 -18 -17 -51 -24 -19 -45 -39
-45 -45 0 -7 -7 -15 -16 -18 -8 -3 -12 -11 -9 -16 4 -6 2 -17 -5 -24 -6 -8 -8
-27 -5 -43 5 -26 5 -26 -5 -5 -6 15 -17 22 -27 20 -14 -3 -21 -21 -30 -82 -16
-103 -27 -115 -72 -74 -33 29 -33 31 -29 96 6 78 42 164 88 208 17 16 36 34
43 40 6 6 41 12 77 13 46 1 61 -2 50 -9z m50 -590 c6 -11 17 -20 26 -20 8 0
18 -8 21 -17 4 -10 13 -24 20 -32 8 -7 16 -26 19 -41 4 -17 12 -27 22 -26 12
1 22 -14 32 -44 8 -25 30 -64 48 -85 17 -22 32 -47 32 -57 0 -10 9 -23 20 -30
11 -7 20 -18 20 -25 0 -8 13 -13 31 -13 22 0 32 5 36 20 3 11 9 20 14 20 5 0
18 18 29 40 19 37 30 45 54 41 4 -1 14 3 21 9 16 14 55 -7 55 -29 0 -8 3 -12
6 -8 8 8 43 -58 50 -93 3 -13 10 -30 15 -37 6 -6 8 -21 4 -32 -5 -18 9 -61 34
-101 14 -23 41 -87 41 -98 0 -6 4 -12 8 -14 14 -5 63 -154 56 -172 -3 -9 -14
-16 -24 -16 -11 0 -20 -9 -22 -22 -3 -18 -10 -22 -50 -24 -50 -2 -55 4 -38 37
7 12 21 19 40 19 16 0 32 5 35 10 9 15 -44 182 -66 204 -16 18 -22 18 -61 7
-24 -8 -49 -15 -55 -17 -23 -6 -13 -61 29 -154 29 -63 49 -131 42 -142 -12
-19 -112 -77 -162 -93 -63 -21 -115 -14 -147 21 -43 47 -46 21 -10 -86 14 -40
22 -83 19 -95 -4 -15 0 -24 10 -28 10 -4 13 -1 10 7 -5 13 52 66 70 66 4 0 22
11 40 25 46 35 142 72 217 84 69 11 78 9 59 -14 -7 -8 -8 -15 -2 -15 5 0 13
-7 16 -16 3 -8 2 -12 -4 -9 -6 3 -10 4 -10 2 0 -2 -5 -29 -11 -58 -6 -30 -12
-80 -14 -112 -4 -52 -2 -59 18 -67 17 -7 18 -9 5 -9 -25 -1 -22 -26 4 -51 15
-14 31 -19 45 -15 12 3 25 1 28 -5 3 -5 1 -10 -6 -10 -18 0 -5 -10 18 -14 42
-8 114 -49 109 -62 -3 -8 5 -14 22 -16 18 -2 27 -8 26 -20 -1 -10 2 -16 6 -13
5 3 12 -5 16 -17 9 -30 7 -275 -3 -290 -4 -7 -11 -35 -15 -63 -12 -86 -20
-120 -30 -132 -7 -9 -7 -13 1 -13 6 0 11 -17 11 -40 0 -22 -4 -40 -9 -40 -5 0
-17 -27 -27 -59 -11 -32 -22 -54 -26 -48 -10 16 -44 -18 -53 -51 -5 -20 -8
-23 -16 -11 -7 11 -9 10 -9 -6 0 -11 -11 -32 -25 -47 -14 -15 -25 -32 -25 -39
0 -6 -9 -23 -19 -38 -10 -14 -24 -45 -30 -67 -6 -23 -22 -58 -36 -78 -15 -22
-20 -36 -12 -37 9 0 9 -2 0 -6 -7 -2 -13 -11 -13 -20 0 -8 -16 -48 -35 -88
-20 -40 -37 -87 -38 -103 -1 -17 -5 -28 -8 -26 -8 5 -19 -21 -19 -46 0 -11 -9
-24 -20 -30 -12 -6 -20 -21 -20 -36 0 -16 -8 -28 -24 -35 -27 -12 -41 -65 -24
-86 10 -13 7 -15 -22 -17 -9 -1 -17 -13 -19 -31 -3 -27 -4 -28 -12 -10 -7 15
-8 9 -5 -20 3 -22 2 -32 0 -22 -3 9 -10 17 -15 17 -6 0 -10 19 -9 43 2 58 1
64 -10 47 -5 -8 -10 -28 -11 -45 l-1 -30 -9 30 c-5 19 -5 31 3 36 6 4 8 14 5
23 -8 19 2 48 13 41 5 -3 11 -1 15 5 3 5 -1 10 -10 10 -12 0 -15 6 -10 19 4
13 -2 27 -16 40 -13 12 -18 21 -11 21 8 0 11 33 11 108 0 59 2 119 6 133 4 18
1 31 -9 42 -9 8 -16 20 -16 26 0 26 -103 -1 -144 -37 -10 -10 -20 -15 -22 -12
-3 5 -61 -42 -125 -101 -15 -15 -30 -25 -32 -23 -2 3 -10 -2 -17 -11 -7 -8
-18 -15 -25 -15 -7 0 -15 -7 -19 -15 -3 -8 -12 -15 -21 -15 -8 0 -15 -6 -15
-14 0 -22 -19 -30 -35 -16 -11 9 -19 10 -28 1 -15 -12 -27 -5 -27 16 0 7 8 13
17 13 15 0 14 2 -3 15 -12 9 -14 14 -5 15 7 0 11 6 8 14 -3 7 0 19 6 25 6 6 8
11 3 11 -4 0 0 12 8 28 8 15 17 34 20 42 3 8 10 22 15 30 10 16 22 47 27 67 1
7 9 20 18 29 15 14 20 28 17 47 0 4 8 24 19 44 26 50 26 83 0 83 -11 0 -20 7
-20 15 0 18 -20 20 -20 3 -1 -8 -6 -6 -14 5 -7 9 -21 17 -30 17 -9 0 -24 5
-34 11 -12 8 -44 7 -112 -1 -52 -6 -108 -12 -125 -13 -16 -2 -37 -6 -45 -9
-14 -6 -80 -18 -107 -20 -7 -1 -10 -5 -8 -8 3 -4 -10 -18 -28 -30 -43 -29 -72
-94 -96 -215 -20 -96 -20 -177 -1 -200 7 -9 19 -76 26 -155 2 -19 6 -61 9 -92
3 -31 9 -68 14 -81 10 -25 67 -62 73 -48 2 5 27 11 55 14 50 6 52 5 50 -16 -1
-12 -9 -25 -17 -29 -12 -5 -12 -7 3 -7 22 -1 22 -27 0 -35 -15 -6 -15 -9 -3
-16 11 -7 12 -14 3 -32 -6 -13 -18 -43 -26 -68 -43 -132 -51 -155 -56 -160
-13 -10 -35 -128 -39 -209 -4 -93 11 -166 36 -176 13 -5 14 -8 3 -14 -11 -7
-9 -10 7 -15 12 -4 24 -16 27 -27 4 -10 13 -19 21 -19 8 0 14 -7 14 -15 0 -8
13 -21 28 -29 15 -8 47 -33 70 -55 24 -23 66 -52 95 -65 29 -14 63 -34 76 -45
31 -27 110 -28 168 -1 33 15 41 23 37 37 -4 13 -3 14 3 5 8 -10 13 -10 23 4 8
9 15 23 16 32 2 8 12 28 23 43 12 16 21 38 21 50 0 39 23 93 52 122 16 15 28
32 28 37 0 13 37 50 43 43 3 -2 20 6 37 19 31 23 32 23 46 4 8 -11 14 -30 14
-42 0 -12 6 -27 13 -33 10 -7 12 -27 9 -67 -3 -41 -1 -59 9 -66 11 -8 10 -8
-5 -4 -15 5 -17 2 -12 -17 3 -12 6 -71 7 -130 1 -59 4 -107 8 -107 4 0 12 -15
19 -33 7 -20 25 -40 44 -51 85 -45 118 -63 130 -73 7 -5 37 -18 66 -28 28 -11
52 -23 52 -28 0 -4 5 -5 11 -1 6 3 15 1 19 -6 11 -18 101 -25 141 -11 19 6 65
13 102 16 69 5 107 18 107 35 0 6 7 10 15 10 9 0 12 6 9 15 -4 10 0 15 16 15
11 0 18 5 15 10 -8 12 -3 13 29 0 28 -10 41 1 41 35 0 14 8 21 28 23 15 2 27
-1 27 -7 0 -21 18 -11 24 14 5 18 13 25 31 25 14 0 25 5 25 11 0 7 20 10 57 7
57 -3 85 14 44 27 -23 7 -39 61 -22 78 8 8 11 1 11 -26 0 -34 2 -37 30 -37 28
0 30 3 32 38 l1 37 4 -37 c5 -41 22 -52 24 -15 l2 22 4 -22 c3 -16 11 -23 28
-23 13 0 25 5 27 12 3 8 11 9 24 3 18 -8 18 -9 -3 -12 -13 -3 -23 -11 -23 -19
0 -10 -12 -14 -40 -14 -23 0 -40 -5 -40 -11 0 -8 24 -9 80 -4 71 6 80 5 80
-10 0 -9 5 -13 11 -10 13 9 59 -3 59 -15 0 -5 -14 -24 -32 -42 -26 -27 -29
-33 -15 -36 23 -5 21 -19 -3 -34 -11 -7 -20 -21 -20 -30 0 -10 -7 -18 -17 -18
-38 0 0 -12 54 -17 38 -3 64 -11 75 -23 12 -12 39 -20 89 -25 47 -5 67 -10 58
-16 -10 -6 -6 -9 13 -9 49 0 128 -21 128 -34 0 -9 9 -12 25 -8 15 2 25 0 25
-7 0 -6 8 -12 18 -12 16 -1 16 -2 -1 -6 -14 -4 -15 -8 -7 -18 8 -10 3 -18 -22
-36 -18 -13 -37 -24 -43 -24 -5 -1 -17 -4 -25 -7 -15 -6 -131 -31 -250 -52
-36 -7 -71 -16 -78 -20 -9 -6 -64 -22 -137 -40 -51 -13 -65 -20 -65 -32 0 -8
-4 -14 -10 -14 -5 0 -10 -9 -10 -20 0 -11 -5 -20 -11 -20 -7 0 -9 10 -7 25 6
27 -9 35 -17 10 -14 -43 -18 -50 -22 -38 -4 10 -11 10 -32 -1 -15 -8 -47 -13
-71 -12 -44 2 -45 3 -51 42 -3 21 -7 29 -8 17 -3 -53 -25 -70 -35 -28 -4 14
-11 23 -16 20 -5 -3 -7 0 -4 8 3 8 -2 20 -11 27 -8 7 -15 20 -15 29 0 21 -19
41 -39 41 -8 0 -22 7 -32 16 -10 9 -38 19 -63 21 -26 3 -52 13 -62 24 -9 11
-23 19 -30 19 -7 0 -14 4 -16 9 -5 13 -206 87 -278 102 -36 7 -80 13 -97 13
-18 0 -33 4 -33 9 0 5 -7 4 -16 -4 -13 -10 -17 -10 -23 0 -11 17 -91 -34 -92
-58 0 -9 -3 -51 -5 -93 -4 -52 -2 -78 5 -78 6 0 11 -18 11 -40 0 -29 -4 -40
-15 -40 -12 0 -11 -4 5 -20 23 -23 27 -60 6 -60 -11 0 -13 -9 -9 -38 3 -20 9
-39 13 -42 3 -3 9 -13 13 -22 3 -10 13 -18 22 -18 8 0 16 -10 16 -22 2 -23 2
-23 6 -1 7 37 63 41 63 4 0 -10 3 -12 8 -4 6 10 59 17 102 14 25 -2 117 -94
124 -124 4 -15 11 -25 16 -22 5 3 7 0 4 -8 -3 -9 3 -17 18 -21 19 -5 21 -8 8
-16 -13 -9 -11 -13 10 -30 14 -11 29 -20 34 -20 5 0 21 -12 36 -27 16 -16 44
-41 64 -57 20 -15 36 -33 36 -40 1 -21 38 -56 60 -56 14 0 25 -10 35 -34 9
-20 24 -36 37 -39 16 -4 23 -14 25 -33 0 -15 8 -31 17 -36 43 -24 -4 -100 -69
-112 -17 -3 -50 -17 -75 -30 -25 -13 -60 -27 -78 -31 -18 -3 -30 -11 -26 -16
3 -5 -9 -15 -26 -23 -17 -7 -30 -17 -28 -22 5 -16 -39 -16 -69 0 -15 8 -45 30
-65 48 -21 18 -49 41 -63 51 -27 20 -36 60 -10 51 8 -4 15 -15 15 -25 0 -10 7
-19 15 -19 8 0 15 -4 15 -10 0 -10 71 -33 78 -25 3 2 13 0 24 -6 14 -7 23 -7
34 2 32 26 -18 139 -62 139 -19 0 -24 5 -24 25 0 16 6 25 15 25 8 0 15 7 15
15 0 8 5 15 11 15 8 0 8 5 -1 15 -7 8 -19 15 -27 15 -8 0 -30 12 -49 26 -24
19 -42 25 -64 22 -16 -2 -31 0 -33 5 -5 15 -47 -61 -54 -96 -5 -25 -3 -29 10
-24 12 5 17 1 17 -14 0 -11 7 -22 15 -25 8 -4 15 -11 15 -16 0 -6 -7 -5 -15 2
-9 7 -19 9 -23 5 -4 -4 3 -14 16 -22 12 -9 22 -19 22 -24 0 -19 -39 8 -97 67
-35 35 -63 61 -63 58 0 -3 -20 18 -45 48 -25 29 -54 57 -63 63 -10 5 -45 39
-79 75 -33 36 -112 118 -177 182 -64 65 -116 120 -116 122 0 3 -10 16 -21 28
-53 57 -168 214 -263 357 -93 141 -176 276 -176 286 0 8 -64 100 -74 107 -6 4
-24 -9 -41 -29 -16 -20 -42 -50 -57 -67 -16 -17 -28 -34 -28 -38 0 -4 -10 -18
-22 -32 -13 -14 -41 -50 -63 -82 -22 -31 -61 -79 -87 -106 -27 -27 -48 -55
-48 -63 0 -7 -15 -28 -32 -47 -43 -44 -68 -76 -68 -86 0 -5 -13 -21 -30 -37
-16 -16 -30 -33 -30 -37 0 -10 0 -10 -61 -83 -84 -99 -209 -270 -209 -285 0
-5 -8 -15 -18 -22 -10 -7 -33 -44 -51 -82 -32 -64 -33 -72 -20 -95 16 -28 26
-30 141 -30 70 -1 86 -9 69 -38 -6 -10 -11 -13 -11 -6 0 17 -30 5 -57 -24 -12
-13 -32 -23 -45 -23 -32 0 -119 -61 -160 -112 -79 -98 -95 -168 -78 -348 5
-55 3 -79 -6 -89 -11 -12 -16 -12 -29 -1 -9 7 -14 19 -11 26 3 7 -2 15 -10 18
-8 3 -14 18 -14 35 0 16 -5 33 -11 36 -6 4 -8 13 -5 20 6 16 -20 40 -53 50
-18 6 -20 9 -10 16 11 7 9 9 -7 9 -31 0 -73 -23 -80 -44 -3 -10 -33 -57 -65
-104 -32 -47 -59 -92 -59 -99 0 -7 -4 -13 -8 -13 -5 0 -17 -16 -28 -35 -10
-19 -22 -35 -26 -35 -5 0 -8 -6 -8 -13 0 -7 -12 -24 -27 -38 -16 -14 -57 -58
-93 -98 -36 -40 -71 -78 -79 -84 -8 -7 -36 -33 -63 -59 -26 -27 -51 -48 -56
-48 -4 0 -20 -14 -36 -30 -16 -16 -44 -32 -62 -36 -18 -3 -41 -14 -53 -25 -11
-10 -27 -19 -36 -19 -9 0 -18 -7 -21 -15 -4 -8 -12 -15 -20 -15 -8 0 -20 -24
-30 -57 -9 -32 -22 -67 -29 -78 -7 -11 -18 -37 -25 -58 -7 -21 -18 -41 -26
-44 -8 -3 -14 -11 -14 -19 0 -25 -51 -66 -75 -60 -18 5 -24 1 -29 -17 -6 -26
-53 -45 -121 -49 -38 -3 -40 -5 -38 -33 3 -43 11 -112 19 -170 4 -27 6 -66 5
-85 -1 -36 -24 -95 -41 -105 -6 -3 -10 -19 -10 -34 0 -16 -7 -34 -15 -41 -8
-7 -15 -21 -15 -31 0 -10 -10 -25 -21 -33 -21 -14 -79 -135 -79 -163 0 -17
-53 -168 -76 -218 -11 -22 -25 -44 -31 -48 -7 -4 -13 -13 -13 -20 -1 -15 -94
-107 -109 -107 -6 0 -11 -3 -11 -8 0 -17 -118 -50 -186 -51 -59 -1 -73 2 -89
19 -10 11 -24 20 -32 20 -7 0 -19 11 -25 25 -6 14 -14 25 -18 25 -4 0 -12 33
-18 73 -15 103 6 229 48 292 11 17 20 36 20 44 0 8 6 22 14 30 8 9 26 40 41
69 15 29 34 56 42 59 23 9 64 53 58 63 -3 5 5 10 17 12 13 2 28 15 36 30 7 15
22 30 34 34 11 3 38 23 58 43 21 20 65 61 98 91 34 30 66 65 73 77 7 12 25 25
41 28 15 4 26 10 23 15 -3 5 17 19 45 32 30 14 48 28 45 35 -2 7 0 13 5 13 5
0 11 -8 14 -17 2 -10 2 -1 -1 20 -4 29 -2 37 10 37 20 0 29 37 10 44 -10 4
-14 15 -11 30 4 17 -3 32 -23 50 -42 40 -69 133 -69 237 0 48 4 90 9 93 4 3
11 19 14 36 9 42 43 114 62 130 8 7 15 18 15 24 0 6 15 26 33 43 33 32 136 73
185 73 26 0 89 38 114 69 10 12 24 21 32 21 7 0 17 8 20 18 8 21 28 55 44 74
6 8 9 17 6 21 -3 3 7 14 22 23 32 21 94 84 94 94 0 5 11 11 25 14 16 4 25 13
25 27 0 11 8 22 18 26 9 3 25 13 35 21 21 18 37 27 152 86 50 25 104 48 120
52 17 4 41 15 54 26 13 10 29 18 35 18 19 0 69 46 73 66 5 30 -6 64 -21 64
-19 0 -66 57 -66 80 0 10 -5 22 -10 25 -16 10 -50 82 -50 105 0 12 -7 28 -16
37 -8 9 -13 22 -10 29 3 8 -4 18 -15 24 -11 6 -17 15 -13 21 7 12 -15 41 -26
34 -4 -3 -10 4 -13 15 -5 18 -21 24 -64 23 -6 0 -9 6 -6 13 3 8 -6 18 -21 25
-14 7 -26 15 -26 19 0 11 -36 50 -46 50 -5 0 -21 12 -36 28 -14 15 -31 32 -38
39 -37 37 -70 76 -70 83 0 4 -11 15 -25 24 -14 9 -25 22 -25 29 0 16 -88 97
-105 97 -8 0 -20 10 -26 23 -7 12 -21 31 -33 43 -36 35 -48 62 -36 84 11 20
40 17 40 -5 0 -16 30 -42 55 -47 11 -2 26 -16 33 -31 7 -15 21 -27 31 -27 9 0
30 -14 47 -31 16 -17 39 -35 51 -40 13 -5 32 -23 42 -40 11 -17 30 -36 43 -43
12 -6 29 -24 37 -40 7 -16 22 -31 32 -33 11 -3 19 -9 19 -14 0 -4 18 -27 40
-51 22 -24 40 -46 40 -50 0 -4 12 -19 26 -35 15 -16 23 -35 20 -46 -3 -12 0
-17 9 -14 9 4 11 -1 8 -14 -4 -15 0 -19 18 -19 13 0 48 -11 77 -25 30 -14 59
-25 65 -25 26 0 112 -52 158 -95 51 -47 81 -56 114 -31 17 12 20 32 26 137 7
118 26 229 40 229 4 0 10 18 14 40 4 22 10 40 14 40 4 0 13 24 21 53 7 28 19
61 26 72 8 11 14 29 14 41 0 12 16 59 35 104 19 45 35 93 35 106 0 13 5 24 11
24 6 0 8 7 5 16 -3 8 1 25 9 37 7 12 17 46 21 75 3 28 11 52 16 52 6 0 7 7 4
16 -4 9 0 24 8 33 7 9 16 34 19 56 2 22 12 92 20 155 9 63 18 165 21 225 3 61
14 148 25 195 11 47 20 105 19 130 -1 61 12 130 24 130 6 0 9 19 6 45 -2 25 0
45 4 45 5 0 8 11 8 24 0 14 6 31 14 38 7 8 17 30 21 49 4 19 16 51 26 71 11
21 19 49 19 63 0 14 7 37 17 51 13 20 14 32 5 60 -8 27 -7 37 4 49 13 12 12
25 -6 102 -12 48 -28 108 -35 133 -8 25 -30 99 -50 165 -20 66 -44 147 -55
180 -31 97 -62 284 -63 370 0 83 15 147 40 176 11 13 12 28 5 65 -5 29 -5 63
1 84 10 39 53 88 59 68 3 -8 19 1 43 25 28 27 41 34 51 26 9 -7 13 -6 16 5 2
10 8 8 21 -10 18 -24 18 -24 -27 -71 -26 -26 -46 -50 -46 -54 0 -11 18 -20 22
-12 1 5 20 20 40 36 43 32 123 50 152 35 17 -9 86 -4 233 16 22 3 38 -18 27
-35 -3 -5 -2 -15 3 -21 4 -7 8 -15 9 -18 6 -29 18 -35 67 -35 28 1 57 -3 63
-7 7 -5 17 -2 24 7 7 8 17 12 22 9 5 -3 27 6 48 20 22 14 44 26 50 26 6 0 28
8 50 19 24 12 42 15 48 9 6 -6 16 -1 26 13 9 13 16 19 16 13 0 -6 15 -11 33
-12 17 -1 89 -4 158 -8 116 -5 129 -4 167 15 23 12 42 19 42 16 0 -3 21 10 48
28 46 33 63 66 45 90 -5 7 -11 30 -12 52 -3 43 -15 65 -37 65 -7 0 -14 12 -16
28 -2 21 -9 28 -30 30 -16 2 -28 8 -28 13 0 5 -11 9 -25 9 -16 0 -25 6 -25 15
0 17 -27 19 -62 6 -36 -13 -189 -24 -159 -11 13 6 32 8 42 5 13 -4 19 -1 19 8
0 10 -8 13 -25 9 -30 -5 -33 13 -6 28 27 14 108 13 113 -2 6 -18 174 -13 218
6 20 9 28 15 17 16 -10 0 -16 4 -12 10 3 5 13 6 23 3 13 -5 12 0 -6 19 l-23
25 27 32 27 32 -33 102 c-19 56 -45 127 -58 157 -28 66 -78 227 -102 330 -9
41 -21 86 -27 100 -6 14 -21 61 -33 105 -12 44 -26 85 -30 90 -4 6 -13 35 -20
65 -7 30 -16 64 -21 75 -9 19 -17 56 -18 83 -1 7 -5 11 -10 8 -5 -4 -7 4 -4
15 6 20 34 -49 72 -176 54 -178 95 -298 108 -311 20 -20 38 -13 37 15 -1 33
12 25 42 -26 15 -27 35 -58 44 -70 16 -21 17 -20 13 30 -4 48 -12 83 -44 197
-7 25 -12 51 -10 57 1 7 -5 26 -14 43 -8 16 -12 30 -8 30 4 0 2 5 -4 11 -6 6
-9 18 -6 26 3 8 1 24 -5 36 -6 12 -13 38 -15 57 -3 19 -11 63 -17 96 -13 61
-10 94 9 94 6 0 15 -9 21 -20z m-1467 -435 c-3 -26 -1 -50 5 -57 6 -7 13 -31
17 -53 6 -36 5 -38 -8 -22 -11 13 -16 15 -19 5 -4 -11 -8 -10 -21 1 -15 12
-17 11 -17 -3 0 -9 7 -16 15 -16 20 0 83 -62 77 -78 -2 -6 -12 -12 -22 -12
-10 0 -20 -7 -24 -15 -3 -8 -12 -15 -20 -15 -10 0 -21 26 -34 83 -18 74 -18
84 -4 100 10 12 11 17 3 17 -7 0 -11 10 -9 23 2 16 9 21 26 20 16 -2 22 2 22
16 0 20 10 51 16 51 2 0 1 -20 -3 -45z m47 -265 c0 -5 -8 -14 -19 -19 -18 -10
-36 -61 -21 -61 11 0 5 -111 -9 -151 -6 -20 -11 -41 -9 -45 3 -11 -22 -87 -31
-94 -4 -3 -15 -25 -26 -50 -10 -25 -27 -53 -36 -62 -16 -16 -18 -16 -39 2 -12
10 -23 33 -25 51 -3 18 -11 47 -19 63 -8 17 -21 73 -29 124 l-14 93 40 40 c22
21 44 39 49 39 4 0 16 8 26 18 9 9 44 27 77 38 69 25 85 28 85 14z m6439 -174
c16 -16 33 -26 38 -23 5 3 20 -4 34 -16 30 -27 86 -67 94 -67 6 0 62 -39 170
-118 156 -115 188 -139 228 -174 l42 -37 -32 -1 c-17 0 -38 7 -47 15 -8 8 -21
15 -29 15 -8 0 -20 7 -27 14 -6 8 -28 20 -48 27 -51 17 -167 76 -232 119 -30
20 -78 47 -105 60 -68 32 -122 80 -150 132 -41 77 2 113 64 54z m-5803 -226
c8 0 14 -9 14 -22 0 -12 14 -43 31 -69 17 -27 32 -54 33 -61 2 -7 8 -26 14
-41 7 -16 12 -32 12 -37 0 -5 4 -11 9 -14 5 -3 4 13 -1 37 -6 23 -11 61 -12
85 -2 36 0 42 17 42 13 0 17 -5 13 -16 -3 -8 1 -29 10 -46 9 -17 12 -37 8 -46
-13 -30 -15 -104 -2 -96 8 5 9 -2 3 -22 -4 -16 -8 -46 -9 -66 -1 -40 -29 -79
-45 -63 -10 12 -65 173 -92 270 -50 187 -51 193 -37 225 l13 31 3 -46 c2 -31
8 -45 18 -45z m7291 -640 c17 0 79 -64 98 -101 10 -17 17 -46 18 -64 2 -57
-69 -123 -141 -132 -20 -3 -41 -11 -47 -17 -20 -25 -87 -56 -118 -56 -42 0
-58 11 -59 41 -1 13 -6 30 -11 36 -16 22 2 80 38 118 31 32 35 43 35 90 l0 53
43 16 c51 19 86 25 112 20 11 -2 25 -4 32 -4z m-11020 -1116 c64 -31 71 -50
49 -137 -22 -87 -22 -91 25 -187 57 -115 58 -119 57 -170 -1 -46 -15 -70 -43
-70 -12 0 -15 -6 -10 -19 4 -14 -1 -25 -19 -36 -14 -10 -23 -22 -19 -31 3 -8
-1 -14 -11 -14 -9 0 -16 5 -16 10 0 6 -10 21 -22 33 -13 13 -39 54 -58 91 -58
113 -62 120 -84 144 -11 13 -48 36 -81 52 -38 18 -67 40 -77 58 -25 42 -22
107 6 168 26 56 96 130 130 138 41 9 122 -5 173 -30z m-6497 -1309 c34 -18 56
-55 75 -129 12 -46 12 -52 -2 -63 -9 -7 -27 -13 -39 -13 -13 0 -44 -11 -70
-25 -26 -14 -56 -25 -66 -25 -32 0 -77 29 -93 60 -60 116 79 255 195 195z
m4105 -1132 c21 -5 50 -16 89 -34 34 -16 65 -62 78 -117 13 -59 12 -130 -2
-148 -7 -7 -9 -18 -6 -23 4 -6 -3 -15 -15 -22 -16 -8 -18 -13 -9 -19 9 -5 7
-12 -7 -26 -10 -11 -27 -32 -37 -47 -10 -16 -34 -36 -54 -44 -20 -8 -50 -26
-66 -39 -17 -15 -35 -22 -46 -19 -12 4 -22 -1 -29 -12 -6 -10 -11 -13 -11 -7
0 6 -17 11 -37 10 -48 -1 -133 23 -133 37 0 6 -12 24 -27 39 -24 25 -28 39
-31 103 -4 81 12 127 63 183 14 15 25 35 25 45 0 10 13 26 30 35 16 9 30 20
30 25 0 4 6 7 14 7 7 0 24 15 37 34 13 19 26 31 29 27 8 -13 80 -23 80 -12 0
5 -10 13 -21 16 -17 6 -19 9 -8 16 8 5 21 6 29 3 8 -4 24 -8 35 -11z m8319
-123 c19 -7 26 -17 26 -35 0 -14 7 -37 16 -51 14 -20 15 -30 6 -49 -7 -14 -17
-25 -23 -25 -17 0 -49 30 -49 47 0 14 -10 16 -47 13 -13 -1 -34 10 -48 24 -44
44 -29 72 45 79 25 2 46 4 47 5 1 1 13 -2 27 -8z m-354 -500 l0 -40 40 0 c37
0 55 -13 29 -22 -17 -6 -1 -48 17 -48 9 0 14 -8 13 -17 -1 -10 2 -26 6 -37 5
-11 4 -26 -3 -37 -9 -13 -8 -19 1 -22 9 -3 7 -14 -7 -41 -11 -20 -23 -36 -28
-36 -4 0 -8 -7 -8 -16 0 -9 -13 -21 -29 -27 -27 -10 -29 -14 -34 -86 -3 -42
-3 -102 0 -134 5 -49 3 -57 -11 -57 -21 0 -65 49 -66 73 0 9 -5 16 -12 15 -7
-2 -14 13 -18 37 -3 22 -9 46 -13 52 -35 57 -61 383 -31 383 8 0 14 6 14 13 0
21 41 54 85 70 56 21 55 21 55 -23z m-4821 -577 c15 -28 20 -33 21 -18 1 32
20 -4 20 -37 0 -16 5 -28 10 -28 6 0 10 11 10 25 0 14 4 25 9 25 10 0 24 -77
15 -91 -7 -12 15 -41 26 -34 5 3 12 -4 15 -16 4 -13 2 -25 -5 -29 -9 -6 -9
-13 -1 -28 6 -11 11 -35 11 -52 0 -17 -5 -41 -11 -52 -8 -16 -8 -23 2 -30 11
-8 10 -9 -3 -4 -15 4 -18 -1 -18 -32 0 -21 5 -43 10 -50 7 -9 7 -9 -2 -2 -15
13 -48 13 -48 1 0 -6 5 -13 10 -16 17 -10 2 -23 -63 -56 -36 -18 -63 -26 -65
-20 -2 6 -22 12 -45 12 -23 1 -34 3 -24 6 21 6 22 17 2 33 -8 7 -15 21 -15 31
0 11 -4 19 -10 19 -5 0 -10 -5 -10 -11 0 -5 -5 -7 -10 -4 -6 4 -8 11 -5 16 9
14 -17 79 -32 79 -13 0 -18 35 -14 98 2 23 -3 38 -16 47 -17 13 -17 14 0 15
13 0 17 9 17 40 0 22 4 40 10 40 5 0 10 25 12 55 2 31 7 54 13 53 6 -2 9 -9 9
-15 -1 -7 4 -13 11 -13 9 0 13 10 12 26 -2 23 4 29 38 39 73 23 92 19 114 -22z
m5206 -701 c66 -19 100 -39 104 -62 2 -8 5 -78 8 -155 l4 -140 36 -32 c21 -19
37 -43 39 -60 1 -15 8 -29 13 -31 6 -2 11 -12 11 -22 0 -10 4 -21 9 -24 5 -3
12 -26 15 -51 4 -25 12 -45 17 -45 6 0 7 -9 4 -20 -4 -12 -1 -27 5 -35 6 -8 9
-19 5 -25 -4 -6 -1 -18 6 -26 9 -11 9 -21 1 -39 -8 -18 -8 -33 0 -57 9 -24 8
-33 0 -36 -7 -2 -12 -21 -12 -43 0 -26 -4 -37 -12 -35 -7 1 -10 1 -5 -1 4 -3
7 -16 7 -29 0 -21 -4 -24 -40 -24 -36 0 -40 3 -40 25 0 21 -5 25 -30 25 -34 0
-31 -7 -80 150 -18 58 -37 114 -41 125 -4 11 -13 38 -20 60 -6 22 -15 45 -19
50 -3 6 -12 29 -19 53 -7 24 -34 90 -62 147 -59 126 -81 210 -72 283 10 89 53
108 168 74z"/>
<path d="M15797 5635 c3 -27 10 -53 16 -56 13 -9 -1 -29 -21 -29 -13 0 -14 -2
-3 -9 9 -6 11 -18 6 -40 -4 -17 -11 -29 -16 -25 -11 6 -29 -38 -29 -72 0 -13
-5 -24 -11 -24 -8 0 -8 -4 0 -13 8 -10 7 -17 -2 -26 -9 -10 -8 -15 7 -27 11
-8 15 -14 8 -14 -6 0 -17 -18 -23 -40 -7 -22 -16 -40 -20 -40 -4 0 -10 -18
-14 -40 -4 -22 -10 -38 -14 -36 -4 3 -5 -10 -3 -28 2 -21 -2 -39 -12 -49 -12
-12 -18 -42 -22 -112 -3 -53 -9 -106 -14 -118 -7 -17 -9 -18 -9 -4 -1 9 -6 17
-11 17 -6 0 -9 -12 -8 -27 4 -57 -2 -83 -18 -83 -11 0 -14 -6 -9 -20 4 -12 1
-28 -6 -36 -7 -9 -13 -49 -13 -102 -1 -73 -4 -90 -21 -105 -16 -15 -17 -21 -7
-37 8 -14 9 -32 3 -60 -5 -22 -5 -40 -1 -40 5 0 12 -36 16 -80 5 -58 10 -80
20 -80 10 0 14 -13 14 -40 0 -31 -4 -40 -17 -40 -14 0 -18 -9 -20 -36 -2 -43
-10 -54 -24 -34 -8 12 -9 10 -4 -6 4 -16 0 -23 -14 -27 -11 -2 -24 -20 -31
-43 -7 -22 -21 -46 -30 -54 -10 -8 -21 -30 -24 -47 -4 -18 -12 -35 -17 -38 -5
-4 -9 -23 -9 -44 0 -20 -7 -46 -15 -57 -20 -26 -19 -34 5 -34 47 0 141 125
179 237 10 29 26 61 35 72 15 17 15 22 2 62 -9 26 -12 45 -6 47 6 2 10 19 10
38 0 19 11 56 25 82 14 26 25 59 25 74 0 39 23 136 28 116 3 -15 7 -16 24 -7
15 8 17 13 8 19 -9 6 -7 16 11 41 13 19 26 36 30 39 19 18 70 106 80 140 7 23
26 52 42 66 16 14 27 28 24 31 -4 3 0 18 7 32 8 14 22 43 30 63 9 21 22 41 29
45 7 4 17 22 23 38 6 17 16 29 22 27 7 -1 12 -1 13 0 13 56 5 95 -56 273 -89
257 -127 359 -138 366 -4 3 -15 28 -22 55 l-14 49 6 -50z"/>
<path d="M16524 4553 c-8 -30 23 -129 62 -197 13 -23 24 -51 24 -63 0 -12 6
-26 13 -30 6 -4 19 -21 27 -38 33 -67 72 -125 85 -125 7 0 15 -7 19 -15 8 -23
19 -18 43 19 20 31 22 48 24 189 2 166 3 161 -55 215 -16 15 -34 32 -40 38
-16 15 -98 34 -150 34 -41 0 -46 -3 -52 -27z"/>
<path d="M25552 22437 c6 -72 37 -145 48 -113 5 14 9 9 20 -23 7 -22 16 -41
20 -41 11 0 31 67 24 83 -3 8 -1 18 5 22 6 3 11 17 11 30 0 13 6 25 12 27 9 3
5 16 -12 41 -24 35 -28 37 -79 37 l-54 0 5 -63z"/>
</g>
</svg>
